<?xml version="1.0" encoding="UTF-8"?>
<svg width="18px" height="23px" viewBox="0 0 18 23" version="1.1" xmlns="http://www.w3.org/2000/svg" xmlns:xlink="http://www.w3.org/1999/xlink">
    <!-- Generator: Sketch 53.2 (72643) - https://sketchapp.com -->
    <title>logo-500px</title>
    <desc>Created with Sketch.</desc>
    <g id="Website-(new)" stroke="none" stroke-width="1" fill="none" fill-rule="evenodd">
        <g id="iPhone-8" transform="translate(-124.000000, -11.000000)" fill="#000000" fill-rule="nonzero">
            <g id="logo-500px" transform="translate(123.000000, 10.000000)">
                <path d="M4.14674246,16.1123848 C4.15179877,16.1263333 4.27168006,16.4558035 4.34111875,16.6191227 C4.72236641,17.515241 5.26832733,18.3202075 5.96388559,19.0116498 C6.65891364,19.7025554 7.46875703,20.245226 8.37094916,20.6245679 C9.30487698,21.0173073 10.2967475,21.2164394 11.3190041,21.2164394 C12.3410727,21.2164394 13.3329432,21.0172737 14.2670638,20.6244912 C15.1689089,20.2452931 15.9787861,19.702541 16.6741226,19.0113192 C17.3694013,18.3201931 17.9153622,17.5151165 18.2968894,16.618495 C18.6919612,15.6899419 18.8922759,14.7039223 18.8922759,13.6878254 C18.8922759,12.6716519 18.6919612,11.6856371 18.2968894,10.7571558 C17.9154249,9.86060146 17.3694688,9.05552479 16.6741226,8.36428854 C15.979003,7.67320562 15.1691307,7.13044396 14.2670638,6.75108771 C13.3330396,6.35834833 12.3411691,6.15921146 11.3190041,6.15921146 C10.2847117,6.15921146 9.25123865,6.36387312 8.33025285,6.75108771 C7.59412843,7.06068687 6.34807834,7.85769437 5.61870691,8.60545312 L5.61440254,8.60984229 L5.61440254,2.41389625 L16.0841732,2.41380042 C16.4651654,2.40966042 16.4651654,1.88074667 16.4651654,1.70694812 C16.4651654,1.53317833 16.4651654,1.00440354 16.0830068,1.00008146 L4.76243128,1 C4.45424223,1 4.26347621,1.25484479 4.26347621,1.49096375 L4.26347621,10.212051 C4.26347621,10.4934129 4.61603449,10.6965604 4.94361007,10.766236 C5.58333685,10.9020702 5.73111219,10.6987981 5.88778548,10.4836858 L5.90855539,10.4551515 C6.14773955,10.1019433 6.89521055,9.35410312 6.90268656,9.34665687 C8.06917087,8.18710708 9.62884229,7.54851687 11.2943443,7.54851687 C12.9518932,7.54851687 14.5071349,8.18710229 15.6735855,9.34663771 C16.8439982,10.5102029 17.4885933,12.051936 17.4885933,13.6878302 C17.4885933,15.3296277 16.8472952,16.8712985 15.6828546,18.0288837 C14.5332744,19.1716627 12.9273491,19.827086 11.2768714,19.827086 C10.1589643,19.827086 9.07986398,19.5309754 8.15548964,18.9705948 L8.15944696,13.6678154 C8.15944696,12.9607571 8.46810356,12.1921162 8.98509554,11.6117065 C9.57617762,10.9481612 10.390764,10.5827248 11.2788814,10.5827248 C12.1389697,10.5827248 12.9422433,10.9073171 13.5407725,11.4967065 C14.1349925,12.0819079 14.4622596,12.8615744 14.4622596,13.6920804 C14.4622596,15.4641346 13.0605484,16.8522469 11.2711499,16.8522469 C10.9261978,16.8522469 10.2991045,16.7007344 10.273341,16.694486 C9.91201972,16.5875169 9.75833009,17.0861473 9.70774289,17.2505015 C9.51327019,17.8826085 9.80552873,18.0079106 9.86607912,18.0266221 C10.44192,18.2042635 10.8194899,18.2379394 11.3148299,18.2379394 C13.8408878,18.2379394 15.8959908,16.1939677 15.8959908,13.6816058 C15.8959908,11.1894073 13.8421459,9.16184708 11.3176255,9.16184708 C10.0813507,9.16184708 8.91995639,9.63163167 8.0474273,10.4846729 C7.21646695,11.2970617 6.73988689,12.380285 6.73988689,13.4563256 L6.73941452,13.4830344 C6.73536079,13.6172106 6.73271937,16.7961317 6.73196743,17.839359 L6.72725335,17.8341792 C6.25240371,17.3115233 5.78314542,16.5115067 5.47197272,15.6941202 C5.34998986,15.3737733 5.07451499,15.4304827 4.69854536,15.5455737 C4.53436232,15.5958479 4.03468905,15.7488602 4.14520002,16.1079237 L4.14674246,16.1123848 Z M9.52791373,14.866494 C9.52954775,15.0189265 9.66984708,15.1525469 9.75364975,15.2324 L9.77998208,15.2576569 C9.92370852,15.3981917 10.0606145,15.4694438 10.1868391,15.4694438 C10.2913779,15.4694438 10.355794,15.4202908 10.3786077,15.399174 C10.4419248,15.34073 11.1580987,14.619335 11.2264095,14.5505219 L12.0250943,15.3419375 C12.0990302,15.4247471 12.1794106,15.4662429 12.27308,15.4688017 C12.4006205,15.4688017 12.5396039,15.3934144 12.686155,15.2447146 C13.0307938,14.8948942 12.8583491,14.706275 12.7749561,14.6150752 L11.9657104,13.8103579 L12.8096465,12.9654673 C12.9947248,12.7663975 12.8313274,12.554831 12.6683109,12.3927625 C12.4316091,12.1574533 12.2032316,12.0967285 12.0568638,12.2308137 L11.2177044,13.0664565 L10.3691168,12.222644 C10.3241499,12.1798017 10.2674363,12.1571562 10.2050929,12.1571562 C10.0920031,12.1571562 9.95820614,12.2331712 9.80737966,12.3831073 C9.54638926,12.6424946 9.49042281,12.8218275 9.62626353,12.9648875 L10.4750728,13.8061077 L9.63126199,14.6464367 C9.5618474,14.7153408 9.52706539,14.7893865 9.52791373,14.866494 Z M11.3772938,3.46425833 C10.0207039,3.46425833 8.57770835,3.73648729 7.51749329,4.1924 C7.40415291,4.23650729 7.33640608,4.32701229 7.32154564,4.45413042 C7.3075962,4.57406583 7.34018023,4.73229146 7.42124989,4.93820375 C7.48698673,5.10522688 7.66162944,5.54891125 7.99973218,5.42068625 C9.08480461,5.00922104 10.2843116,4.78261833 11.3772987,4.78261833 C12.6157715,4.78261833 13.8168836,5.02360563 14.9473327,5.49890542 C15.8455627,5.87664688 16.693085,6.42227396 17.6145383,7.21602792 C17.6817164,7.27392563 17.7530156,7.30326979 17.8264454,7.30326979 C18.0060866,7.30326979 18.178406,7.12786125 18.3258102,6.96343042 C18.5718437,6.68903563 18.7407987,6.46099063 18.4984091,6.23274438 C17.6184619,5.4040975 16.6542444,4.78508125 15.4639101,4.2846875 C14.1693455,3.74029667 12.7944053,3.46425833 11.3772938,3.46425833 Z M18.6871604,20.1171448 L18.6871893,20.1171448 C18.523951,19.9553206 18.3852857,19.8597556 18.2633028,19.8249729 C18.1396281,19.7896727 18.029175,19.8159742 17.9438636,19.9010167 L17.8635507,19.9807021 C17.0227573,20.8166227 16.0436408,21.4728942 14.9534494,21.9312746 C13.8252706,22.4056496 12.6264818,22.6461721 11.390366,22.6461721 C10.1542454,22.6461721 8.95549516,22.4056496 7.82731154,21.9312746 C6.73721654,21.4729421 5.75816272,20.8167042 4.91733558,19.9807644 C4.04131672,19.1099317 3.3811719,18.1367058 2.95530436,17.0880927 C2.54006038,16.0656229 2.40444139,15.2966083 2.35988417,15.0439198 C2.35570512,15.0202585 2.35240333,15.0015327 2.34981493,14.9879867 C2.29267236,14.6904433 2.01716375,14.6696235 1.62122918,14.7298308 C1.45656413,14.7548817 0.95547374,14.8310835 1.00318814,15.189481 L1.00433533,15.1976652 C1.13699959,16.0272944 1.37136362,16.8407421 1.70093474,17.6153965 C2.2306663,18.8604104 2.98883796,19.9783063 3.95434241,20.9380388 C4.91988061,21.8979246 6.04448287,22.6515867 7.29684733,23.1781142 C8.59345087,23.7234777 9.97071436,24 11.390366,24 C12.8092947,24 14.1865919,23.7233388 15.4839185,23.1777117 C16.7358684,22.6513758 17.8604706,21.8975556 18.8264523,20.9372481 C18.828684,20.935044 18.8814402,20.8829873 18.9103176,20.851736 C19.0166206,20.7366881 19.1091284,20.535371 18.6871604,20.1171448 Z" id="Shape"></path>
            </g>
        </g>
    </g>
</svg>