<?xml version="1.0" encoding="UTF-8"?>
<svg width="22px" height="28px" viewBox="0 0 22 28" version="1.1" xmlns="http://www.w3.org/2000/svg" xmlns:xlink="http://www.w3.org/1999/xlink">
    <!-- Generator: Sketch 53.2 (72643) - https://sketchapp.com -->
    <title>android</title>
    <desc>Created with Sketch.</desc>
    <g id="Website-(new)" stroke="none" stroke-width="1" fill="none" fill-rule="evenodd">
        <g id="Desktop-HD-Copy-2" transform="translate(-1607.000000, -1507.000000)" fill-rule="nonzero">
            <g id="Group-52" transform="translate(1342.000000, 860.000000)">
                <g id="Group-29" transform="translate(100.000000, 646.000000)">
                    <g id="Group-25">
                        <g id="Group-28" transform="translate(116.000000, 0.000000)">
                            <g id="android" transform="translate(49.000000, 1.000000)">
                                <path d="M1.52777778,18.2608696 L1.52777778,18.2608696 C0.683833333,18.2608696 0,17.5797391 0,16.7391304 L0,10.0434783 C0,9.20286957 0.683833333,8.52173913 1.52777778,8.52173913 L1.52777778,8.52173913 C2.37172222,8.52173913 3.05555556,9.20286957 3.05555556,10.0434783 L3.05555556,16.7391304 C3.05555556,17.5797391 2.37172222,18.2608696 1.52777778,18.2608696 Z" id="Path" fill="#72C472"></path>
                                <path d="M20.4722222,18.2608696 L20.4722222,18.2608696 C19.6282778,18.2608696 18.9444444,17.5797391 18.9444444,16.7391304 L18.9444444,10.0434783 C18.9444444,9.20286957 19.6282778,8.52173913 20.4722222,8.52173913 L20.4722222,8.52173913 C21.3161667,8.52173913 22,9.20286957 22,10.0434783 L22,16.7391304 C22,17.5797391 21.3161667,18.2608696 20.4722222,18.2608696 Z" id="Path" fill="#72C472"></path>
                                <path d="M3.66666667,8.52173913 L3.66666667,21.3043478 C3.66666667,21.9769565 4.21361111,22.5217391 4.88888889,22.5217391 L6.11111111,22.5217391 L6.11111111,26.4782609 C6.11111111,27.3188696 6.79494444,28 7.63888889,28 C8.48283333,28 9.16666667,27.3188696 9.16666667,26.4782609 L9.16666667,22.5217391 L12.8333333,22.5217391 L12.8333333,26.4782609 C12.8333333,27.3188696 13.5171667,28 14.3611111,28 C15.2050556,28 15.8888889,27.3188696 15.8888889,26.4782609 L15.8888889,22.5217391 L17.1111111,22.5217391 C17.7863889,22.5217391 18.3333333,21.9769565 18.3333333,21.3043478 L18.3333333,8.52173913 L3.66666667,8.52173913 Z" id="Path" fill="#72C472"></path>
                                <path d="M14.5835556,2.15721739 L15.8308333,0.538695652 C15.9335,0.405391304 15.9084444,0.21426087 15.7746111,0.112 C15.6407778,0.00852173913 15.4488889,0.0353043478 15.3462222,0.168 L14.0292778,1.8766087 C13.1052778,1.45782609 12.0822778,1.2173913 11,1.2173913 C9.91772222,1.2173913 8.89472222,1.45782609 7.97072222,1.87721739 L6.65377778,0.168608696 C6.55172222,0.0359130435 6.36044444,0.0109565217 6.22538889,0.112608696 C6.09155556,0.214869565 6.0665,0.406 6.16916667,0.539304348 L7.41644444,2.15782609 C5.3515,3.31556522 3.90316667,5.43626087 3.69722222,7.91304348 L18.3027778,7.91304348 C18.0968333,5.43626087 16.6485,3.31556522 14.5835556,2.15721739 Z" id="Path" fill="#72C472"></path>
                                <ellipse id="Oval" fill="#FFFFFF" cx="7.63888889" cy="4.56521739" rx="1" ry="1"></ellipse>
                                <ellipse id="Oval" fill="#FFFFFF" cx="14.3611111" cy="4.56521739" rx="1" ry="1"></ellipse>
                            </g>
                        </g>
                    </g>
                </g>
            </g>
        </g>
    </g>
</svg>