<?xml version="1.0" encoding="UTF-8"?>
<svg width="36px" height="36px" viewBox="0 0 36 36" version="1.1" xmlns="http://www.w3.org/2000/svg" xmlns:xlink="http://www.w3.org/1999/xlink">
    <!-- Generator: Sketch 53.2 (72643) - https://sketchapp.com -->
    <title>rice</title>
    <desc>Created with Sketch.</desc>
    <g id="Website-(new)" stroke="none" stroke-width="1" fill="none" fill-rule="evenodd">
        <g id="Desktop-HD-Copy-2" transform="translate(-1275.000000, -6026.000000)" fill-rule="nonzero">
            <g id="rice" transform="translate(1275.000000, 6026.000000)">
                <path d="M28.7841472,11.9999981 C28.494851,11.9995288 28.2292219,11.8289003 28.0928013,11.5559078 C27.9563806,11.2829154 27.971262,10.9517704 28.1315326,10.6940455 L34.5610825,0.374163398 C34.8018023,-0.011992567 35.2894814,-0.116214237 35.6503442,0.141377783 C36.0112071,0.398969804 36.1086022,0.920830656 35.8678824,1.30698662 L29.4391179,11.6260284 C29.2931102,11.8602091 29.0472246,12.0006028 28.7841472,11.9999981 Z" id="Path" fill="#C19F85"></path>
                <path d="M22.7164602,11.9999999 C22.6343762,12.0000551 22.552916,11.9834681 22.4757588,11.9509883 C22.1034079,11.7968784 21.9091162,11.3221119 22.0416366,10.8901779 L24.5998053,2.58312756 C24.6781424,2.29221034 24.8875691,2.07439484 25.1454586,2.01561735 C25.4033482,1.95683986 25.6682876,2.06653914 25.8357485,2.30143476 C26.0032094,2.53633037 26.0463,2.85870171 25.9480196,3.14136135 L23.3905674,11.4484117 C23.2888883,11.7789239 23.0190766,11.9996973 22.7164602,11.9999999 Z" id="Path" fill="#C19F85"></path>
                <path d="M32.9999898,15.1666301 C33.0039757,12.9810139 31.8436779,10.9771327 29.99538,9.97754758 C28.1470821,8.97796245 25.9221279,9.15105252 24.2338255,10.4257671 C22.8157961,8.00903125 19.9442735,7.02432948 17.4440501,8.09741918 C16.2329583,6.56732818 14.3623443,5.79409348 12.4846245,6.04739723 C10.6069048,6.30070097 8.98245814,7.54541815 8.17784513,9.34742701 C5.21470986,9.55538027 2.93292521,12.1804661 3.00150605,15.3025614 C3.07008689,18.4246568 5.46470305,20.9361476 8.43380888,21 L28.2452451,21 L28.2452451,20.9333329 C30.9709893,20.5174445 32.9947221,18.0629982 32.9999898,15.1666301 Z" id="Path" fill="#E6E6E6"></path>
                <path d="M35.2173913,18 L0.782608696,18 C0.350385848,18 0,18.3663125 0,18.8181818 C0.0167729379,26.1807662 4.12916444,32.8603953 10.5323478,35.9255455 C10.6344978,35.9745125 10.7455368,35.9999064 10.857913,36 L25.142087,36 C25.2544632,35.9999064 25.3655022,35.9745125 25.4676522,35.9255455 C31.8708356,32.8603953 35.9832271,26.1807662 36,18.8181818 C36,18.3663125 35.6496142,18 35.2173913,18 Z" id="Path" fill="#A67C52"></path>
                <circle id="Oval" fill="#B3B3B3" cx="5" cy="7" r="1"></circle>
                <circle id="Oval" fill="#B3B3B3" cx="17" cy="4" r="1"></circle>
                <circle id="Oval" fill="#B3B3B3" cx="13" cy="13" r="1"></circle>
            </g>
        </g>
    </g>
</svg>