<?xml version="1.0" encoding="UTF-8"?>
<svg width="23px" height="19px" viewBox="0 0 23 19" version="1.1" xmlns="http://www.w3.org/2000/svg" xmlns:xlink="http://www.w3.org/1999/xlink">
    <!-- Generator: Sketch 49.3 (51167) - http://www.bohemiancoding.com/sketch -->
    <title>D</title>
    <desc>Created with Sketch.</desc>
    <defs></defs>
    <g id="Website" stroke="none" stroke-width="1" fill="none" fill-rule="evenodd">
        <g id="Desktop-Copy-7" transform="translate(-34.000000, -35.000000)" fill="#1B1B1B">
            <g id="Group-2-Copy" transform="translate(22.000000, 21.000000)">
                <g id="Group">
                    <path d="M14.7472318,32.2933134 L14.6776542,32.2933134 C14.3181677,32.2701207 13.9673838,32.2121399 13.6252919,32.1193692 C13.2832,32.0265985 12.9672045,31.8642522 12.6772961,31.6323255 C12.5497364,31.5395548 12.4424719,31.4177951 12.3554994,31.2670427 C12.2685269,31.1162904 12.2192432,30.9597422 12.2076468,30.7973934 C12.1844542,30.4263107 12.2801225,30.1248105 12.4946547,29.8928837 C12.709187,29.660957 12.9758987,29.4812165 13.2947979,29.3536568 C13.6136972,29.2260971 13.9499859,29.1420249 14.3036742,29.1014377 C14.6573624,29.0608505 14.9733579,29.0405573 15.2516699,29.0405573 C15.5763674,29.0521536 15.8952618,29.0724469 16.2083629,29.1014377 C16.521464,29.1304286 16.8345604,29.1739142 17.1476615,29.2318959 C17.3332029,29.2550885 17.5129434,29.2782808 17.6868884,29.3014735 C17.8608335,29.3246662 18.0347759,29.3652528 18.208721,29.4232344 C18.5450147,29.5391978 18.8146255,29.550794 19.0175614,29.4580233 C19.2204973,29.3652526 19.4321272,29.1855121 19.6524576,28.9187963 C19.9307697,28.5825026 20.1771882,28.2230215 20.3917204,27.8403424 C20.6062526,27.4576633 20.8178826,27.07499 21.0266166,26.6923109 C21.2933324,26.1820721 21.5803374,25.6834371 21.8876403,25.1963909 C22.1949432,24.7093448 22.4993425,24.2165079 22.8008472,23.7178654 C23.067563,23.2772046 23.3255776,22.8394495 23.5748988,22.4045869 C23.8242201,21.9697243 24.1112251,21.5493634 24.4359225,21.1434916 C24.7722163,20.7028308 25.1230002,20.288268 25.4882848,19.8997907 C25.8535694,19.5113135 26.256536,19.1431353 26.6971968,18.7952452 C27.28861,18.3429881 27.9263989,18.0066994 28.6105828,17.786369 C28.7033535,17.75158 28.8367093,17.7080944 29.0106544,17.6559108 C29.1845994,17.6037273 29.3614409,17.5602417 29.5411841,17.5254527 C29.7209273,17.4906637 29.8948698,17.4790675 30.0630167,17.4906639 C30.2311635,17.5022602 30.3616204,17.5486449 30.4543911,17.6298192 C30.5587581,17.7341862 30.5993447,17.8269555 30.576152,17.9081299 C30.5529593,17.9893043 30.4978775,18.0588812 30.410905,18.1168629 C30.3239325,18.1748446 30.2224661,18.2212292 30.1065027,18.2560183 C29.9905393,18.2908073 29.89777,18.3197977 29.828192,18.3429903 C29.5266873,18.435761 29.2744707,18.5865111 29.0715348,18.7952452 C28.868599,19.0039793 28.6685652,19.2243063 28.4714274,19.4562331 C28.1235373,19.8505085 27.8046429,20.2679704 27.5147345,20.7086312 C27.224826,21.1492919 26.9494172,21.6015423 26.6884996,22.0653957 C26.427582,22.5292492 26.1782645,22.9959947 25.9405396,23.4656464 C25.7028148,23.935298 25.4621944,24.4020435 25.2186713,24.865897 C25.0679189,25.1442091 24.9229669,25.4196179 24.7838109,25.6921318 C24.6446548,25.9646457 24.4997028,26.2342565 24.3489504,26.5009723 C24.0126567,27.1039818 23.6299833,27.6866889 23.2009189,28.2491112 C22.7718544,28.8115336 22.3022098,29.3246638 21.791971,29.7885172 C21.722393,29.8464989 21.6441189,29.9160759 21.5571464,29.9972502 C21.4701739,30.0784246 21.4382844,30.1711939 21.4614771,30.2755609 C21.4846698,30.3683316 21.5571458,30.4437067 21.6789073,30.5016883 C21.8006688,30.55967 21.9079333,30.6002566 22.000704,30.6234493 C22.1978417,30.7046236 22.4007746,30.7684025 22.6095086,30.8147879 C22.8182427,30.8611732 23.0211756,30.9133559 23.2183133,30.9713376 C23.5662034,31.052512 23.9256844,31.1046947 24.2967672,31.1278874 C24.6678499,31.1510801 25.0360281,31.1365849 25.4013127,31.0844013 C25.7665973,31.0322178 26.1202803,30.9394485 26.4623722,30.8060907 C26.8044641,30.6727328 27.1146615,30.4900932 27.3929735,30.2581665 C28.065561,29.7131387 28.6540663,29.1043402 29.1585069,28.4317526 C29.6629476,27.7591651 30.1007027,27.0286069 30.4717855,26.240056 C30.5645562,26.0313219 30.6544264,25.822591 30.7413989,25.613857 C30.8283715,25.4051229 30.9182417,25.1905939 31.0110124,24.9702635 C31.3241135,24.1585199 31.5531377,23.3120001 31.6980919,22.4306785 C31.8430461,21.5493569 31.8517433,20.6738467 31.7241835,19.8041214 C31.6314129,19.1663229 31.4342781,18.5546254 31.1327733,17.9690104 C30.8312686,17.3833954 30.3906144,16.928246 29.8107976,16.6035486 C29.0454394,16.1744841 28.2279099,15.9309647 27.3581847,15.872983 C26.4884595,15.8150013 25.6303434,15.8671841 24.7838109,16.0295328 C24.5286915,16.0875145 24.2764749,16.1512934 24.0271537,16.2208714 C23.7778325,16.2904494 23.5372121,16.3716225 23.3052854,16.4643932 C23.084955,16.5571639 22.873325,16.6470342 22.6703891,16.7340067 C22.4674532,16.8209792 22.2674194,16.9166476 22.0702817,17.0210146 C21.2817308,17.4036937 20.5685668,17.9342181 19.9307683,18.6126038 C19.2929698,19.2909895 18.7885367,20.0186487 18.417454,20.7956032 C18.3014906,21.02753 18.1942261,21.3029388 18.0956572,21.6218381 C17.9970884,21.9407373 17.9391076,22.2654299 17.9217131,22.5959255 C17.9043186,22.9264211 17.939107,23.2424165 18.0260796,23.5439212 C18.1130521,23.845426 18.2840955,24.0889454 18.5392149,24.2744868 C18.7595453,24.4368355 18.9972666,24.5383019 19.252386,24.5788891 C19.5075054,24.6194763 19.762621,24.6223753 20.0177404,24.5875863 C20.2728598,24.5527973 20.5250763,24.4832203 20.7743976,24.3788533 C21.0237188,24.2744863 21.252743,24.1585246 21.4614771,24.0309649 C21.5310551,23.9961759 21.6064302,23.932397 21.6876045,23.8396263 C21.7687789,23.7468557 21.8557501,23.7236633 21.9485208,23.7700487 C22.0412915,23.8048377 22.0876761,23.8686166 22.0876761,23.9613873 C22.0876761,24.054158 22.07608,24.1353311 22.0528873,24.2049091 C22.0180983,24.3904505 21.9456223,24.5498977 21.8354571,24.6832556 C21.7252919,24.8166135 21.6006331,24.9354741 21.4614771,25.0398412 C21.322321,25.1442082 21.1715709,25.2369775 21.0092222,25.3181519 C20.8468735,25.3993262 20.6903253,25.4747013 20.5395729,25.5442793 C20.1452975,25.741417 19.7220376,25.9066623 19.2697804,26.0400202 C18.8175233,26.1733781 18.3710711,26.1994694 17.9304103,26.1182951 C17.4201715,26.0255244 16.9882144,25.8051973 16.6345262,25.4573072 C16.2808379,25.1094171 16.0402175,24.6919553 15.9126578,24.2049091 C15.8430798,23.9381934 15.787998,23.6424912 15.7474108,23.3177938 C15.7068237,22.9930964 15.7097227,22.6973943 15.7561081,22.4306785 C15.8836678,21.688513 16.1532785,20.9985413 16.5649485,20.3607428 C16.9766184,19.7229443 17.4259697,19.13154 17.9130159,18.5865122 C18.3536766,18.0994661 18.8233212,17.6617109 19.3219637,17.2732336 C19.8206062,16.8847564 20.3714239,16.5513667 20.9744334,16.2730546 C21.6934062,15.9367609 22.4442578,15.658453 23.2270105,15.4381226 C24.0097632,15.2177922 24.7954032,15.061244 25.5839541,14.9684733 C26.1753672,14.9104916 26.7580744,14.9220878 27.3320931,15.0032621 C27.9061117,15.0844365 28.4830208,15.188802 29.0628376,15.3163617 C29.5498838,15.4091323 30.0108312,15.5366901 30.4456938,15.6990388 C30.8805565,15.8613876 31.3009174,16.0875127 31.7067891,16.3774211 C31.9271195,16.5397698 32.1329514,16.7195104 32.324291,16.9166481 C32.5156305,17.1137858 32.692472,17.3167186 32.8548207,17.5254527 C33.1795181,17.9429208 33.4317347,18.3893731 33.6114779,18.8648229 C33.7912211,19.3402727 33.9216779,19.8389077 34.0028523,20.3607428 C34.1420083,21.2420644 34.1738978,22.1233727 34.0985216,23.0046943 C34.0231454,23.8860159 33.8173135,24.7441319 33.4810197,25.5790681 C33.3070747,26.0313252 33.1012428,26.4632823 32.8635179,26.8749522 C32.625793,27.2866222 32.3619803,27.6953869 32.0720719,28.1012587 C31.9908975,28.2288184 31.9010273,28.34478 31.8024584,28.4491471 C31.7038896,28.5535141 31.6082212,28.6636776 31.5154505,28.779641 C30.6109363,29.7885223 29.5411903,30.5886575 28.3061805,31.1800706 C27.0711706,31.7714838 25.7810975,32.1251668 24.4359225,32.2411301 C23.8561057,32.2875155 23.2791966,32.2846164 22.7051779,32.2324329 C22.1311593,32.1802494 21.5658464,32.0961772 21.0092222,31.9802139 C20.6845248,31.9106358 20.3598322,31.8149675 20.0351348,31.693206 C19.7104374,31.5714444 19.3799468,31.5221607 19.043653,31.5453534 C18.7189556,31.5685461 18.4116573,31.6555173 18.1217489,31.8062697 C17.8318405,31.9570221 17.5303402,32.0729837 17.2172391,32.154158 C16.8113674,32.2469287 16.3997036,32.2991115 15.9822355,32.3107078 C15.5647674,32.3223041 15.1531036,32.316506 14.7472318,32.2933134 Z M15.5299806,31.2148595 C15.5647696,31.2148595 15.6778322,31.2003643 15.8691718,31.1713734 C16.0605113,31.1423826 16.2576461,31.101796 16.460582,31.0496125 C16.6635179,30.997429 16.8403593,30.9336501 16.9911117,30.8582739 C17.1418641,30.7828977 17.1998449,30.7046236 17.1650559,30.6234493 C17.1534596,30.5886603 17.112873,30.5654679 17.043295,30.5538716 C16.973717,30.5422753 16.9273323,30.5306791 16.9041396,30.5190828 C16.7185982,30.4611011 16.5388577,30.4031203 16.3649127,30.3451386 L15.5299806,30.0668279 C15.3212466,30.0088462 15.0835252,29.9682597 14.8168095,29.945067 C14.5500938,29.9218743 14.3181705,29.968259 14.1210328,30.0842223 C13.9586841,30.176993 13.8659148,30.3103489 13.8427221,30.4842939 C13.8195294,30.658239 13.8775102,30.8089891 14.0166663,30.9365488 C14.1674187,31.0641085 14.3471592,31.1394835 14.5558932,31.1626762 C14.7646273,31.1858689 14.9617621,31.2032631 15.1473034,31.2148595 C15.2632668,31.2264558 15.3908246,31.2264558 15.5299806,31.2148595 Z" id="D"></path>
                </g>
            </g>
        </g>
    </g>
</svg>