<?xml version="1.0" encoding="UTF-8"?>
<svg width="24px" height="25px" viewBox="0 0 24 25" version="1.1" xmlns="http://www.w3.org/2000/svg" xmlns:xlink="http://www.w3.org/1999/xlink">
    <!-- Generator: Sketch 49.3 (51167) - http://www.bohemiancoding.com/sketch -->
    <title>logo-medium</title>
    <desc>Created with Sketch.</desc>
    <defs></defs>
    <g id="Website" stroke="none" stroke-width="1" fill="none" fill-rule="evenodd">
        <g id="Desktop-Copy-7" transform="translate(-1312.000000, -29.000000)" fill-rule="nonzero">
            <g id="Group-32" transform="translate(1278.000000, 29.000000)">
                <g id="logo-medium" transform="translate(34.238683, 0.812500)">
                    <rect id="Rectangle-path" fill="#E5F3EC" x="0" y="0" width="23.2716049" height="23.5625"></rect>
                    <path d="M5.81878479,8.17346246 C5.83758245,7.98504711 5.76610663,7.7988852 5.62631864,7.67217589 L4.20244739,5.94552215 L4.20244739,5.6875 L8.62349431,5.6875 L12.0405962,13.2320295 L15.0448652,5.6875 L19.2592593,5.6875 L19.2592593,5.94552215 L18.0406222,7.12042742 C17.9357169,7.20088765 17.8836592,7.33318592 17.9053757,7.46413958 L17.9053757,16.0983604 C17.8836592,16.2293141 17.9357169,16.3616124 18.0406222,16.4420726 L19.2294672,17.6169779 L19.2294672,17.875 L13.2507212,17.875 L13.2507212,17.6169779 L14.4802347,16.4135092 C14.6012945,16.291639 14.6012945,16.2559348 14.6012945,16.0697971 L14.6012945,9.09082165 L11.1789909,17.8459606 L10.7160318,17.8459606 L6.72957059,9.09082165 L6.72957059,14.9582072 C6.69630383,15.2049932 6.77775962,15.4534548 6.95041013,15.6318259 L8.55208795,17.5879385 L8.55208795,17.8459606 L4.01234568,17.8459606 L4.01234568,17.5879385 L5.6140235,15.6318259 C5.78542659,15.4531626 5.86215446,15.2030556 5.82067635,14.9582072 L5.81878479,8.17346246 Z" id="Shape" fill="#1D1B1A"></path>
                </g>
            </g>
        </g>
    </g>
</svg>