<?xml version="1.0" encoding="UTF-8"?>
<svg width="22px" height="21px" viewBox="0 0 22 21" version="1.1" xmlns="http://www.w3.org/2000/svg" xmlns:xlink="http://www.w3.org/1999/xlink">
    <!-- Generator: Sketch 49.3 (51167) - http://www.bohemiancoding.com/sketch -->
    <title>logo-github</title>
    <desc>Created with Sketch.</desc>
    <defs></defs>
    <g id="Website" stroke="none" stroke-width="1" fill="none" fill-rule="evenodd">
        <g id="Desktop-Copy-7" transform="translate(-1349.000000, -31.000000)" fill="#191717">
            <g id="Group-32" transform="translate(1278.000000, 29.000000)">
                <g id="logo-github" transform="translate(71.687243, 2.437500)">
                    <path d="M10.431425,0 C4.67113305,0 0,4.66218253 0,10.4140014 C0,15.0143717 2.98882238,18.9174262 7.13462536,20.2945981 C7.65624769,20.3901063 7.84664218,20.0686187 7.84664218,19.7926463 C7.84664218,19.5454409 7.83761407,18.8905726 7.8325545,18.0215529 C4.93070105,18.6508475 4.31840206,16.6256455 4.31840206,16.6256455 C3.84404149,15.422668 3.16013917,15.1023953 3.16013917,15.1023953 C2.21296111,14.4562873 3.23180334,14.4693908 3.23180334,14.4693908 C4.27869488,14.5430353 4.8297053,15.5425306 4.8297053,15.5425306 C5.76029632,17.1338627 7.27129455,16.6743542 7.86572858,16.4077799 C7.96050854,15.7348227 8.23000008,15.2759563 8.52804949,15.015643 C6.21153675,14.7528392 3.77622415,13.8594608 3.77622415,9.86902051 C3.77622415,8.73220718 4.18269784,7.80265084 4.85000877,7.07471525 C4.74274072,6.81127363 4.38474586,5.7525174 4.95228246,4.3188311 C4.95228246,4.3188311 5.82817886,4.03883218 7.82102703,5.38634761 C8.65312166,5.15537843 9.54553989,5.03986347 10.4327117,5.03583696 C11.3186011,5.03986347 12.2110846,5.15537843 13.0443963,5.38634761 C15.0360274,4.03883218 15.9103242,4.3188311 15.9103242,4.3188311 C16.4794604,5.7525174 16.1214047,6.81127363 16.0141366,7.07471525 C16.6827298,7.80265084 17.0864477,8.73221152 17.0864477,9.86902051 C17.0864477,13.8694359 14.6473578,14.7497065 12.3233513,15.0075249 C12.6979289,15.3290125 13.0315865,15.9645726 13.0315865,16.9359431 C13.0315865,18.3280756 13.0187768,19.4512083 13.0187768,19.7926419 C13.0187768,20.0711049 13.2066763,20.3950874 13.7361096,20.2933789 C17.8778658,18.9136513 20.8641975,15.0131568 20.8641975,10.4140014 C20.8641975,4.66218253 16.1929993,0 10.431425,0 Z" id="Shape"></path>
                </g>
            </g>
        </g>
    </g>
</svg>