<?xml version="1.0" encoding="UTF-8"?>
<svg width="24px" height="25px" viewBox="0 0 24 25" version="1.1" xmlns="http://www.w3.org/2000/svg" xmlns:xlink="http://www.w3.org/1999/xlink">
    <!-- Generator: Sketch 49.3 (51167) - http://www.bohemiancoding.com/sketch -->
    <title>logo-linkedin</title>
    <desc>Created with Sketch.</desc>
    <defs></defs>
    <g id="Website" stroke="none" stroke-width="1" fill="none" fill-rule="evenodd">
        <g id="Desktop-Copy-7" transform="translate(-1384.000000, -29.000000)" fill-rule="nonzero">
            <g id="Group-32" transform="translate(1278.000000, 29.000000)">
                <g id="logo-linkedin" transform="translate(106.728395, 0.812500)">
                    <path d="M21.5500354,0 L1.71650296,0 C0.769555119,0 0,0.760617135 0,1.69892007 L0,21.8622693 C0,22.800582 0.769555119,23.5625 1.71650296,23.5625 L21.5500403,23.5625 C22.4989032,23.5625 23.2716049,22.800582 23.2716049,21.8622693 L23.2716049,1.69892007 C23.2716001,0.760617135 22.4988984,0 21.5500354,0 Z" id="Shape" fill="#007BB5"></path>
                    <path d="M3.04743435,8.4605993 L6.26121665,8.4605993 L6.26121665,19.7925 L3.04743435,19.7925 L3.04743435,8.4605993 Z M4.65521166,2.8275 C5.68224075,2.8275 6.51604938,3.74251571 6.51604938,4.86978561 C6.51604938,5.99736719 5.68223624,6.91236805 4.65521166,6.91236805 C3.6240787,6.91236805 2.79259259,5.99737213 2.79259259,4.86978561 C2.79259259,3.74251571 3.62407419,2.8275 4.65521166,2.8275 Z" id="Shape" fill="#FFFFFF"></path>
                    <path d="M9.30864198,8.7563528 L12.7427182,8.7563528 L12.7427182,10.2650822 L12.791832,10.2650822 C13.2694838,9.39746416 14.4384174,8.4825 16.1813535,8.4825 C19.8086643,8.4825 20.4790123,10.7676243 20.4790123,13.7399196 L20.4790123,19.7925 L16.8968601,19.7924952 L16.8968601,14.4256115 C16.8968601,13.1458315 16.8739134,11.4993759 15.0353665,11.4993759 C13.1712562,11.4993759 12.886839,12.8942714 12.886839,14.3340077 L12.886839,19.7925 L9.30864198,19.7925 L9.30864198,8.7563528 Z" id="Shape" fill="#FFFFFF"></path>
                </g>
            </g>
        </g>
    </g>
</svg>