<?xml version="1.0" encoding="UTF-8"?>
<svg width="54px" height="26px" viewBox="0 0 54 26" version="1.1" xmlns="http://www.w3.org/2000/svg" xmlns:xlink="http://www.w3.org/1999/xlink">
    <!-- Generator: Sketch 49.3 (51167) - http://www.bohemiancoding.com/sketch -->
    <title>Group 53</title>
    <desc>Created with Sketch.</desc>
    <defs></defs>
    <g id="Website" stroke="none" stroke-width="1" fill="none" fill-rule="evenodd">
        <g id="Desktop-Copy-7" transform="translate(-696.000000, -6796.000000)">
            <g id="Group-53" transform="translate(696.000000, 6796.000000)">
                <g id="Group-47" transform="translate(0.500000, 0.000000)">
                    <g id="favourite-28" transform="translate(0.000000, 5.000000)" fill="#E86C60" fill-rule="nonzero">
                        <path d="M12.1956522,0 C10.7560072,0 9.40875348,0.630505455 8.5,1.70845091 C7.59124652,0.630505455 6.24399283,0 4.80434783,0 C2.15531543,0 0,2.12056 0,4.72727273 C0,9.21164727 7.92832696,15.6461309 8.26613543,15.9177927 C8.33398391,15.9726545 8.41699196,16 8.5,16 C8.58300804,16 8.66601609,15.9726545 8.73386457,15.9177927 C9.07167304,15.6461309 17,9.21164727 17,4.72727273 C17,2.12056 14.8446846,0 12.1956522,0 Z" id="Shape"></path>
                    </g>
                    <g id="tree-01" transform="translate(38.000000, 0.000000)" fill-rule="nonzero">
                        <path d="M7.5,21 C2.94405577,21 0,18.5187663 0,14.6789273 C0,8.86010399 6.77208462,0.853545944 7.06026346,0.51543751 L7.5,0 L7.93973654,0.51543751 C8.22791538,0.853545944 15,8.86010399 15,14.6789273 C15,18.5187663 12.0559442,21 7.5,21 Z" id="Shape" fill="#72C472"></path>
                        <path d="M10.0042346,14.4476031 L8.08333382,16.3779648 L8.08333382,9.5862069 C8.08333382,9.26247414 7.8221461,9 7.5,9 C7.1778539,9 6.91666618,9.26247414 6.91666618,9.5862069 L6.91666618,13.4469303 L4.99576541,11.5165686 C4.76790356,11.2875845 4.39875825,11.2875845 4.17089639,11.5165686 C3.94303454,11.7455528 3.94303454,12.1165162 4.17089639,12.3455003 L6.91666618,15.1047938 L6.91666618,25.4137931 C6.91666618,25.7375259 7.1778539,26 7.5,26 C7.8221461,26 8.08333382,25.7375259 8.08333382,25.4137931 L8.08333382,18.0358283 L10.8291036,15.2765348 C11.0569655,15.0475507 11.0569655,14.6765872 10.8291036,14.4476031 C10.6012418,14.218619 10.2320964,14.2186131 10.0042346,14.4476031 Z" id="Shape" fill="#4DA34D"></path>
                        <path d="M13.4090909,26 L1.59090909,26 C1.26457955,26 1,25.776125 1,25.5 C1,25.223875 1.26457955,25 1.59090909,25 L13.4090909,25 C13.7354205,25 14,25.223875 14,25.5 C14,25.776125 13.7354205,26 13.4090909,26 Z" id="Shape" fill="#A67C52"></path>
                    </g>
                    <polygon id="+" fill="#000000" points="30.7410588 11.728 30.7410588 12.844 27.6930588 12.844 27.6930588 16 26.5770588 16 26.5770588 12.844 23.5290588 12.844 23.5290588 11.728 26.5770588 11.728 26.5770588 8.572 27.6930588 8.572 27.6930588 11.728"></polygon>
                </g>
            </g>
        </g>
    </g>
</svg>