<?xml version="1.0" encoding="UTF-8"?>
<svg width="26px" height="45px" viewBox="0 0 26 45" version="1.1" xmlns="http://www.w3.org/2000/svg" xmlns:xlink="http://www.w3.org/1999/xlink">
    <!-- Generator: Sketch 53.2 (72643) - https://sketchapp.com -->
    <title>tree-01</title>
    <desc>Created with Sketch.</desc>
    <g id="Website-(new)" stroke="none" stroke-width="1" fill="none" fill-rule="evenodd">
        <g id="Desktop-HD-Copy-2" transform="translate(-805.000000, -6297.000000)" fill-rule="nonzero">
            <g id="tree-01" transform="translate(805.000000, 6297.000000)">
                <path d="M13,37 C5.10303,37 0,32.68213 0,26 C0,15.87402 11.73828,1.94092 12.23779,1.35254 L13,0.45557 L13.76221,1.35254 C14.26172,1.94092 26,15.87402 26,26 C26,32.68213 20.89697,37 13,37 Z" id="Path" fill="#72C472"></path>
                <path d="M17.29297,25.29297 L14,28.58594 L14,17 C14,16.44775 13.55225,16 13,16 C12.44775,16 12,16.44775 12,17 L12,23.58594 L8.70703,20.29297 C8.31641,19.90235 7.68359,19.90235 7.29297,20.29297 C6.90235,20.68359 6.90235,21.31641 7.29297,21.70703 L12,26.41406 L12,44 C12,44.55225 12.44775,45 13,45 C13.55225,45 14,44.55225 14,44 L14,31.41406 L18.70703,26.70703 C19.09765,26.31641 19.09765,25.68359 18.70703,25.29297 C18.31641,24.90235 17.68359,24.90234 17.29297,25.29297 Z" id="Path" fill="#4DA34D"></path>
                <path d="M23,45 L3,45 C2.44775,45 2,44.55225 2,44 C2,43.44775 2.44775,43 3,43 L23,43 C23.55225,43 24,43.44775 24,44 C24,44.55225 23.55225,45 23,45 Z" id="Path" fill="#A67C52"></path>
            </g>
        </g>
    </g>
</svg>