<?xml version="1.0" encoding="UTF-8"?>
<svg width="23px" height="28px" viewBox="0 0 23 28" version="1.1" xmlns="http://www.w3.org/2000/svg" xmlns:xlink="http://www.w3.org/1999/xlink">
    <!-- Generator: Sketch 53.2 (72643) - https://sketchapp.com -->
    <title>apple</title>
    <desc>Created with Sketch.</desc>
    <g id="Website-(new)" stroke="none" stroke-width="1" fill="none" fill-rule="evenodd">
        <g id="Desktop-HD-Copy-2" transform="translate(-1558.000000, -1506.000000)" fill="#B3B3B3" fill-rule="nonzero">
            <g id="Group-52" transform="translate(1342.000000, 860.000000)">
                <g id="Group-29" transform="translate(100.000000, 646.000000)">
                    <g id="Group-25">
                        <g id="Group-28" transform="translate(116.000000, 0.000000)">
                            <g id="apple">
                                <path d="M22.9987895,20.8338261 C22.3699211,22.2344348 22.0697105,22.8595652 21.2598684,24.0970435 C20.1316579,25.8251304 18.5398158,27.9774783 16.5672632,27.9957391 C14.8150263,28.0121739 14.3647105,26.8489565 11.9860263,26.8629565 C9.60734211,26.8769565 9.11163158,28.0164348 7.35939474,28 C5.38684211,27.9823478 3.87973684,26.0387826 2.75031579,24.3094783 C-0.406736842,19.4764348 -0.736605263,13.8052174 1.21052632,10.7903478 C2.59415789,8.64652174 4.77794737,7.39382609 6.83039474,7.39382609 C8.92036842,7.39382609 10.2343947,8.54608696 11.9630263,8.54608696 C13.6396053,8.54608696 14.6606842,7.392 17.0775,7.392 C18.9041842,7.392 20.8398158,8.39208696 22.2192105,10.1201739 C17.6997105,12.6103478 18.4345,19.0984348 22.9987895,20.8338261 L22.9987895,20.8338261 Z" id="Path"></path>
                                <path d="M15.4989737,4.368 C16.3772105,3.2346087 17.043,1.63556522 16.8008947,0 C15.3664211,0.0986086957 13.6898421,1.01652174 12.7105263,2.2126087 C11.8213947,3.29791304 11.0872105,4.90791304 11.3728947,6.47286957 C12.9375,6.52217391 14.5577895,5.58173913 15.4989737,4.368 L15.4989737,4.368 Z" id="Path"></path>
                            </g>
                        </g>
                    </g>
                </g>
            </g>
        </g>
    </g>
</svg>