<?xml version="1.0" encoding="UTF-8"?>
<svg width="518px" height="267px" viewBox="0 0 518 267" version="1.1" xmlns="http://www.w3.org/2000/svg" xmlns:xlink="http://www.w3.org/1999/xlink">
    <!-- Generator: Sketch 49.3 (51167) - http://www.bohemiancoding.com/sketch -->
    <title>Group 43</title>
    <desc>Created with Sketch.</desc>
    <defs></defs>
    <g id="Website" stroke="none" stroke-width="1" fill="none" fill-rule="evenodd">
        <g id="Desktop-Copy-7" transform="translate(-490.000000, -150.000000)">
            <g id="Group-43" transform="translate(490.000000, 150.000000)">
                <rect id="Rectangle-7" fill="#D6F8F1" x="0" y="71" width="518" height="63"></rect>
                <g id="Group-29" transform="translate(10.000000, 0.000000)">
                    <g id="Group-3-Copy">
                        <path d="M87.7663054,226.3664 C88.0351054,225.944 88.4959054,225.3296 89.3791054,224.8496 L89.5903054,225.1184 C88.4959054,225.9632 88.2463054,227.2112 88.5535054,227.2496 C88.9375054,227.288 89.3215054,227.4032 89.6287054,227.7104 C90.2623054,228.3056 90.2623054,229.3232 89.6479054,229.9568 C89.0335054,230.5712 88.0159054,230.5712 87.4015054,229.9568 C86.4415054,228.9968 87.1519054,227.288 87.7663054,226.3664 Z M92.5663054,226.3664 C92.8351054,225.944 93.2959054,225.3296 94.1791054,224.8496 L94.3903054,225.1184 C93.2959054,225.9632 93.0463054,227.2112 93.3535054,227.2496 C93.7375054,227.288 94.1215054,227.4032 94.4287054,227.7104 C95.0623054,228.3056 95.0623054,229.3232 94.4479054,229.9568 C93.8335054,230.5712 92.8159054,230.5712 92.2015054,229.9568 C91.2415054,228.9968 91.9519054,227.288 92.5663054,226.3664 Z M107.193317,237.272 C107.846117,238.808 108.306917,238.6352 108.806117,238.6736 L108.806117,239 L103.314917,239 L103.314917,238.6736 C104.812517,238.6736 103.814117,236.6192 103.814117,236.6192 L103.238117,235.2176 L98.6877172,235.2176 C98.6877172,235.2176 97.4973172,238.8272 100.530917,238.6736 L100.530917,239 L95.8077172,239 L95.8077172,238.6736 C96.3069172,238.6352 96.7869172,238.7888 98.6685172,234.2384 L101.990117,225.4832 L102.316517,225.4832 C107.020517,236.7728 107.193317,237.272 107.193317,237.272 Z M98.7453172,234.8912 L103.122917,234.8912 L100.838117,229.2848 L98.7453172,234.8912 Z M119.343529,236.6576 C119.343529,237.7136 119.439529,238.5008 120.130729,238.6736 L120.130729,239 L116.175529,239 L116.175529,238.6736 C116.905129,238.4624 116.943529,237.6368 116.943529,236.6576 L116.943529,232.9328 C116.943529,232.0112 116.348329,231.3392 115.388329,231.3392 C114.639529,231.3392 113.756329,232.1456 113.756329,232.9136 L113.756329,236.696 C113.756329,237.752 113.871529,238.4816 114.543529,238.6736 L114.543529,239 L110.607529,239 L110.607529,238.6736 C111.337129,238.4624 111.356329,237.6752 111.356329,236.696 L111.356329,232.3568 C111.356329,231.6848 111.183529,231.4736 110.396329,231.0512 L110.396329,230.7248 L113.756329,229.9568 L113.756329,232.0112 C114.197929,230.84 115.714729,229.9568 116.924329,229.9568 C118.421929,229.9568 119.343529,230.552 119.343529,232.8752 L119.343529,236.6576 Z M136.539953,236.5232 L136.808753,236.696 C136.539953,237.6752 135.387953,239.1728 132.987953,239.1728 C130.472753,239.1728 128.763953,236.7728 128.763953,234.5264 C128.763953,232.3184 130.453553,229.9568 133.736753,229.9568 C135.099953,229.9568 135.925553,230.5136 136.251953,230.8016 C136.578353,231.0896 136.770353,231.6272 136.635953,232.088 C136.443953,232.76 135.752753,233.2016 135.061553,233.0096 C134.370353,232.8368 133.967153,232.1264 134.159153,231.4544 C134.235953,231.0896 134.466353,230.84 134.754353,230.6864 C134.927153,230.6096 134.504753,230.2832 133.736753,230.2832 C133.045553,230.2832 131.183153,230.8784 131.183153,234.1808 C131.183153,236.2544 132.296753,237.176 133.621553,237.464 C134.581553,237.6752 136.098353,237.1568 136.539953,236.5232 Z M143.986164,229.9568 C146.923764,229.9568 148.555764,232.0304 148.555764,234.5648 C148.555764,237.08 146.923764,239.1728 143.986164,239.1728 C141.067764,239.1728 139.416564,237.08 139.416564,234.5648 C139.416564,232.0304 141.067764,229.9568 143.986164,229.9568 Z M143.986164,238.8464 C145.368564,238.8464 145.714164,238.04 145.714164,234.5648 C145.714164,231.0896 145.368564,230.2832 143.986164,230.2832 C142.603764,230.2832 142.238964,231.0896 142.238964,234.5648 C142.238964,238.04 142.603764,238.8464 143.986164,238.8464 Z M165.409976,238.6736 L165.409976,239 L161.454776,239 L161.454776,238.6736 C162.184376,238.4624 162.222776,237.6368 162.222776,236.6576 L162.222776,232.9328 C162.222776,231.8576 161.685176,231.3392 160.821176,231.3392 C160.110776,231.3392 159.304376,232.2032 159.304376,232.9712 L159.304376,236.6576 C159.304376,237.7136 159.400376,238.5008 160.091576,238.6736 L160.091576,239 L156.136376,239 L156.136376,238.6736 C156.865976,238.4624 156.904376,237.6368 156.904376,236.6576 L156.904376,232.9328 C156.904376,231.8576 156.385976,231.3392 155.521976,231.3392 C154.811576,231.3392 153.985976,232.2224 153.985976,232.9136 L153.985976,236.696 C153.985976,237.752 154.101176,238.4816 154.773176,238.6736 L154.773176,239 L150.837176,239 L150.837176,238.6736 C151.566776,238.4624 151.585976,237.6752 151.585976,236.696 L151.585976,232.4912 C151.585976,231.8192 151.413176,231.4736 150.625976,231.0512 L150.625976,230.7248 L153.985976,229.9568 L153.985976,231.9344 C154.504376,230.8208 155.675576,229.9568 156.885176,229.9568 C158.229176,229.9568 159.054776,230.5712 159.285176,231.992 C159.688376,230.8208 160.993976,229.9568 162.203576,229.9568 C163.701176,229.9568 164.622776,230.552 164.622776,232.8752 L164.622776,236.6576 C164.622776,237.7136 164.718776,238.5008 165.409976,238.6736 Z M172.740988,238.8464 C174.142588,238.8464 174.737788,237.7712 174.737788,234.8336 C174.737788,231.7616 174.027388,230.7632 172.452988,230.7632 C171.147388,230.7632 170.456188,231.8384 170.456188,233.2016 L170.456188,235.64 C170.456188,238.0592 171.646588,238.8464 172.740988,238.8464 Z M173.412988,229.9568 C175.563388,229.9568 177.483388,231.6464 177.483388,234.68 C177.483388,237.7712 175.448188,239.1728 172.760188,239.1728 C171.608188,239.1728 170.590588,238.8272 169.956988,238.1936 C169.265788,238.7888 168.075388,239.2112 168.075388,238.904 L168.075388,226.9424 C168.075388,226.2896 167.883388,226.0016 167.096188,225.7136 L167.096188,225.3872 L170.456188,224.6768 L170.456188,231.5888 C171.070588,230.4368 172.491388,229.9568 173.412988,229.9568 Z M183.1824,227.1152 C183.1824,227.8448 182.5872,228.4208 181.8576,228.4208 C181.128,228.4208 180.552,227.8448 180.552,227.1152 C180.552,226.3856 181.128,225.8096 181.8576,225.8096 C182.5872,225.8096 183.1824,226.3856 183.1824,227.1152 Z M183.24,236.6576 C183.24,237.7328 183.336,238.4816 184.0272,238.6736 L184.0272,239 L180.0912,239 L180.0912,238.6736 C180.8208,238.4432 180.8592,237.6368 180.8592,236.6576 L180.8592,232.3952 C180.8592,231.7424 180.6672,231.4736 179.88,231.0512 L179.88,230.7248 L183.24,229.9568 L183.24,236.6576 Z M195.025412,236.6576 C195.025412,237.7136 195.121412,238.5008 195.812612,238.6736 L195.812612,239 L191.857412,239 L191.857412,238.6736 C192.587012,238.4624 192.625412,237.6368 192.625412,236.6576 L192.625412,232.9328 C192.625412,232.0112 192.030212,231.3392 191.070212,231.3392 C190.321412,231.3392 189.438212,232.1456 189.438212,232.9136 L189.438212,236.696 C189.438212,237.752 189.553412,238.4816 190.225412,238.6736 L190.225412,239 L186.289412,239 L186.289412,238.6736 C187.019012,238.4624 187.038212,237.6752 187.038212,236.696 L187.038212,232.3568 C187.038212,231.6848 186.865412,231.4736 186.078212,231.0512 L186.078212,230.7248 L189.438212,229.9568 L189.438212,232.0112 C189.879812,230.84 191.396612,229.9568 192.606212,229.9568 C194.103812,229.9568 195.025412,230.552 195.025412,232.8752 L195.025412,236.6576 Z M203.124423,237.0224 L203.124423,234.4304 C201.242823,234.8528 200.609223,235.7552 200.609223,236.7344 C200.609223,236.7344 200.609223,238.0016 201.857223,238.0016 C202.510023,238.0016 202.951623,237.4832 203.124423,237.0224 Z M206.465223,238.0016 C206.465223,238.0016 206.868423,238.0016 206.983623,237.6752 L207.310023,237.8096 C207.156423,238.424 206.273223,239.1728 205.063623,239.1728 C205.063623,239.1728 203.354823,239.1728 203.143623,237.6176 C202.855623,238.4624 201.722823,239.1728 200.359623,239.1728 C200.359623,239.1728 198.151623,239.1728 198.151623,237.2144 C198.151623,235.1216 199.764423,234.9296 203.124423,234.0848 L203.124423,232.8944 C203.124423,230.8976 202.010823,229.8992 200.686023,230.5904 C200.071623,230.8976 199.994823,231.224 200.129223,231.2432 C200.417223,231.2816 200.666823,231.416 200.839623,231.6656 C201.185223,232.1648 201.050823,232.8368 200.551623,233.1824 C200.052423,233.5088 199.380423,233.3936 199.034823,232.8944 C198.804423,232.5296 198.785223,232.0688 198.977223,231.7424 C199.169223,231.416 199.418823,230.8976 200.474823,230.3408 C201.338823,229.88 202.337223,229.9568 202.337223,229.9568 C204.852423,229.9568 205.543623,231.5312 205.543623,233.7968 L205.543623,236.6576 C205.543623,236.6576 205.524423,238.0016 206.465223,238.0016 Z M213.777035,237.8096 C214.333835,237.8096 214.756235,237.4256 214.929035,237.1376 L215.217035,237.3104 C214.833035,238.2128 213.661835,239.1728 212.375435,239.1728 C210.858635,239.1728 209.956235,238.5584 209.956235,236.2352 L209.956235,230.456 L208.996235,230.456 L208.938635,230.1296 L209.956235,230.1296 L209.956235,227.5568 L212.356235,227.1536 L212.356235,230.1296 L214.641035,230.1296 L214.564235,230.456 L212.356235,230.456 L212.356235,236.1776 C212.356235,237.2528 212.817035,237.8096 213.777035,237.8096 Z M220.378447,227.1152 C220.378447,227.8448 219.783247,228.4208 219.053647,228.4208 C218.324047,228.4208 217.748047,227.8448 217.748047,227.1152 C217.748047,226.3856 218.324047,225.8096 219.053647,225.8096 C219.783247,225.8096 220.378447,226.3856 220.378447,227.1152 Z M220.436047,236.6576 C220.436047,237.7328 220.532047,238.4816 221.223247,238.6736 L221.223247,239 L217.287247,239 L217.287247,238.6736 C218.016847,238.4432 218.055247,237.6368 218.055247,236.6576 L218.055247,232.3952 C218.055247,231.7424 217.863247,231.4736 217.076047,231.0512 L217.076047,230.7248 L220.436047,229.9568 L220.436047,236.6576 Z M228.439059,229.9568 C231.376659,229.9568 233.008659,232.0304 233.008659,234.5648 C233.008659,237.08 231.376659,239.1728 228.439059,239.1728 C225.520659,239.1728 223.869459,237.08 223.869459,234.5648 C223.869459,232.0304 225.520659,229.9568 228.439059,229.9568 Z M228.439059,238.8464 C229.821459,238.8464 230.167059,238.04 230.167059,234.5648 C230.167059,231.0896 229.821459,230.2832 228.439059,230.2832 C227.056659,230.2832 226.691859,231.0896 226.691859,234.5648 C226.691859,238.04 227.056659,238.8464 228.439059,238.8464 Z M244.026071,236.6576 C244.026071,237.7136 244.122071,238.5008 244.813271,238.6736 L244.813271,239 L240.858071,239 L240.858071,238.6736 C241.587671,238.4624 241.626071,237.6368 241.626071,236.6576 L241.626071,232.9328 C241.626071,232.0112 241.030871,231.3392 240.070871,231.3392 C239.322071,231.3392 238.438871,232.1456 238.438871,232.9136 L238.438871,236.696 C238.438871,237.752 238.554071,238.4816 239.226071,238.6736 L239.226071,239 L235.290071,239 L235.290071,238.6736 C236.019671,238.4624 236.038871,237.6752 236.038871,236.696 L236.038871,232.3568 C236.038871,231.6848 235.866071,231.4736 235.078871,231.0512 L235.078871,230.7248 L238.438871,229.9568 L238.438871,232.0112 C238.880471,230.84 240.397271,229.9568 241.606871,229.9568 C243.104471,229.9568 244.026071,230.552 244.026071,232.8752 L244.026071,236.6576 Z M257.939294,229.9568 C260.876894,229.9568 262.508894,232.0304 262.508894,234.5648 C262.508894,237.08 260.876894,239.1728 257.939294,239.1728 C255.020894,239.1728 253.369694,237.08 253.369694,234.5648 C253.369694,232.0304 255.020894,229.9568 257.939294,229.9568 Z M257.939294,238.8464 C259.321694,238.8464 259.667294,238.04 259.667294,234.5648 C259.667294,231.0896 259.321694,230.2832 257.939294,230.2832 C256.556894,230.2832 256.192094,231.0896 256.192094,234.5648 C256.192094,238.04 256.556894,238.8464 257.939294,238.8464 Z M271.471906,225.656 C271.702306,226.0016 271.759906,226.5584 271.567906,226.9616 C271.279906,227.5184 270.588706,227.7488 270.031906,227.48 C269.455906,227.192 269.225506,226.52 269.513506,225.944 C269.647906,225.656 269.897506,225.4832 270.185506,225.4256 C270.473506,225.3872 270.185506,225.0224 269.475106,225.0224 C268.726306,225.0224 268.265506,226.1552 268.265506,230.1296 L270.319906,230.1296 L270.262306,230.456 L268.265506,230.456 L268.265506,236.8304 C268.265506,237.8864 268.361506,238.4816 269.052706,238.6736 L269.052706,239 L265.116706,239 L265.116706,238.6736 C265.846306,238.4624 265.865506,237.8096 265.865506,236.8304 L265.865506,230.456 L264.636706,230.456 L264.617506,230.1296 L265.865506,230.1296 C265.865506,225.6944 267.113506,224.696 269.436706,224.696 C270.492706,224.696 271.279906,225.3296 271.471906,225.656 Z M285.807529,236.1968 L285.807529,233.4896 C285.807529,231.0704 284.617129,230.2832 283.522729,230.2832 C282.121129,230.2832 281.506729,231.3392 281.506729,234.2576 C281.506729,237.3488 282.140329,238.5008 283.695529,238.5008 C285.001129,238.5008 285.807529,237.5408 285.807529,236.1968 Z M288.188329,237.1376 C288.188329,238.0784 288.380329,238.3088 289.167529,238.4048 L289.167529,238.7312 L286.345129,239.1536 C285.807529,239.2304 285.807529,238.808 285.807529,238.808 L285.807529,237.6176 C285.193129,238.7504 283.772329,239.1728 282.869929,239.1728 C280.700329,239.1728 278.780329,237.464 278.780329,234.4304 C278.780329,231.3392 280.815529,229.9568 283.503529,229.9568 C284.386729,229.9568 285.193129,230.168 285.807529,230.5328 L285.807529,226.8656 C285.807529,226.1936 285.615529,226.0016 284.828329,225.7136 L284.828329,225.3872 L288.188329,224.6768 L288.188329,237.1376 Z M293.752941,234.0656 L297.516141,234.0656 C297.516141,231.6464 296.728941,230.2832 295.672941,230.2832 C294.540141,230.2832 293.752941,232.2224 293.752941,234.0656 Z M295.768941,229.9568 C298.552941,229.9568 299.858541,231.3968 299.858541,234.392 L293.752941,234.392 C293.906541,236.2736 294.866541,237.2528 296.152941,237.5408 C297.189741,237.7712 298.725741,237.3872 299.205741,236.4848 L299.532141,236.6576 C299.224941,237.656 298.092141,239.1728 295.519341,239.1728 C293.004141,239.1728 291.276141,236.8496 291.276141,234.6032 C291.276141,231.896 293.119341,229.9568 295.768941,229.9568 Z M306.939953,237.8096 C307.496753,237.8096 307.919153,237.4256 308.091953,237.1376 L308.379953,237.3104 C307.995953,238.2128 306.824753,239.1728 305.538353,239.1728 C304.021553,239.1728 303.119153,238.5584 303.119153,236.2352 L303.119153,230.456 L302.159153,230.456 L302.101553,230.1296 L303.119153,230.1296 L303.119153,227.5568 L305.519153,227.1536 L305.519153,230.1296 L307.803953,230.1296 L307.727153,230.456 L305.519153,230.456 L305.519153,236.1776 C305.519153,237.2528 305.979953,237.8096 306.939953,237.8096 Z M312.869365,234.0656 L316.632565,234.0656 C316.632565,231.6464 315.845365,230.2832 314.789365,230.2832 C313.656565,230.2832 312.869365,232.2224 312.869365,234.0656 Z M314.885365,229.9568 C317.669365,229.9568 318.974965,231.3968 318.974965,234.392 L312.869365,234.392 C313.022965,236.2736 313.982965,237.2528 315.269365,237.5408 C316.306165,237.7712 317.842165,237.3872 318.322165,236.4848 L318.648565,236.6576 C318.341365,237.656 317.208565,239.1728 314.635765,239.1728 C312.120565,239.1728 310.392565,236.8496 310.392565,234.6032 C310.392565,231.896 312.235765,229.9568 314.885365,229.9568 Z M326.805177,230.0528 C327.208377,229.88 327.937977,229.9568 328.360377,230.3024 C328.955577,230.8208 329.013177,231.7424 328.494777,232.3184 C327.976377,232.9136 327.093177,232.9904 326.478777,232.472 C326.190777,232.2032 326.037177,231.8768 326.037177,231.5312 C326.037177,231.32 325.249977,231.512 324.539577,232.664 L324.539577,236.6576 C324.539577,237.7328 324.635577,238.4816 325.326777,238.6736 L325.326777,239 L321.352377,239 L321.352377,238.6736 C322.101177,238.4432 322.120377,237.656 322.120377,236.6576 L322.120377,232.3952 C322.120377,231.7424 321.947577,231.4544 321.160377,231.0512 L321.160377,230.7248 L324.539577,229.9568 L324.539577,232.1264 C325.557177,230.5328 326.344377,230.2448 326.805177,230.0528 Z M345.156988,238.6736 L345.156988,239 L341.201788,239 L341.201788,238.6736 C341.931388,238.4624 341.969788,237.6368 341.969788,236.6576 L341.969788,232.9328 C341.969788,231.8576 341.432188,231.3392 340.568188,231.3392 C339.857788,231.3392 339.051388,232.2032 339.051388,232.9712 L339.051388,236.6576 C339.051388,237.7136 339.147388,238.5008 339.838588,238.6736 L339.838588,239 L335.883388,239 L335.883388,238.6736 C336.612988,238.4624 336.651388,237.6368 336.651388,236.6576 L336.651388,232.9328 C336.651388,231.8576 336.132988,231.3392 335.268988,231.3392 C334.558588,231.3392 333.732988,232.2224 333.732988,232.9136 L333.732988,236.696 C333.732988,237.752 333.848188,238.4816 334.520188,238.6736 L334.520188,239 L330.584188,239 L330.584188,238.6736 C331.313788,238.4624 331.332988,237.6752 331.332988,236.696 L331.332988,232.4912 C331.332988,231.8192 331.160188,231.4736 330.372988,231.0512 L330.372988,230.7248 L333.732988,229.9568 L333.732988,231.9344 C334.251388,230.8208 335.422588,229.9568 336.632188,229.9568 C337.976188,229.9568 338.801788,230.5712 339.032188,231.992 C339.435388,230.8208 340.740988,229.9568 341.950588,229.9568 C343.448188,229.9568 344.369788,230.552 344.369788,232.8752 L344.369788,236.6576 C344.369788,237.7136 344.465788,238.5008 345.156988,238.6736 Z M350.4144,227.1152 C350.4144,227.8448 349.8192,228.4208 349.0896,228.4208 C348.36,228.4208 347.784,227.8448 347.784,227.1152 C347.784,226.3856 348.36,225.8096 349.0896,225.8096 C349.8192,225.8096 350.4144,226.3856 350.4144,227.1152 Z M350.472,236.6576 C350.472,237.7328 350.568,238.4816 351.2592,238.6736 L351.2592,239 L347.3232,239 L347.3232,238.6736 C348.0528,238.4432 348.0912,237.6368 348.0912,236.6576 L348.0912,232.3952 C348.0912,231.7424 347.8992,231.4736 347.112,231.0512 L347.112,230.7248 L350.472,229.9568 L350.472,236.6576 Z M362.257412,236.6576 C362.257412,237.7136 362.353412,238.5008 363.044612,238.6736 L363.044612,239 L359.089412,239 L359.089412,238.6736 C359.819012,238.4624 359.857412,237.6368 359.857412,236.6576 L359.857412,232.9328 C359.857412,232.0112 359.262212,231.3392 358.302212,231.3392 C357.553412,231.3392 356.670212,232.1456 356.670212,232.9136 L356.670212,236.696 C356.670212,237.752 356.785412,238.4816 357.457412,238.6736 L357.457412,239 L353.521412,239 L353.521412,238.6736 C354.251012,238.4624 354.270212,237.6752 354.270212,236.696 L354.270212,232.3568 C354.270212,231.6848 354.097412,231.4736 353.310212,231.0512 L353.310212,230.7248 L356.670212,229.9568 L356.670212,232.0112 C357.111812,230.84 358.628612,229.9568 359.838212,229.9568 C361.335812,229.9568 362.257412,230.552 362.257412,232.8752 L362.257412,236.6576 Z M370.356424,237.0224 L370.356424,234.4304 C368.474824,234.8528 367.841224,235.7552 367.841224,236.7344 C367.841224,236.7344 367.841224,238.0016 369.089224,238.0016 C369.742024,238.0016 370.183624,237.4832 370.356424,237.0224 Z M373.697224,238.0016 C373.697224,238.0016 374.100424,238.0016 374.215624,237.6752 L374.542024,237.8096 C374.388424,238.424 373.505224,239.1728 372.295624,239.1728 C372.295624,239.1728 370.586824,239.1728 370.375624,237.6176 C370.087624,238.4624 368.954824,239.1728 367.591624,239.1728 C367.591624,239.1728 365.383624,239.1728 365.383624,237.2144 C365.383624,235.1216 366.996424,234.9296 370.356424,234.0848 L370.356424,232.8944 C370.356424,230.8976 369.242824,229.8992 367.918024,230.5904 C367.303624,230.8976 367.226824,231.224 367.361224,231.2432 C367.649224,231.2816 367.898824,231.416 368.071624,231.6656 C368.417224,232.1648 368.282824,232.8368 367.783624,233.1824 C367.284424,233.5088 366.612424,233.3936 366.266824,232.8944 C366.036424,232.5296 366.017224,232.0688 366.209224,231.7424 C366.401224,231.416 366.650824,230.8976 367.706824,230.3408 C368.570824,229.88 369.569224,229.9568 369.569224,229.9568 C372.084424,229.9568 372.775624,231.5312 372.775624,233.7968 L372.775624,236.6576 C372.775624,236.6576 372.756424,238.0016 373.697224,238.0016 Z M381.009036,237.8096 C381.565836,237.8096 381.988236,237.4256 382.161036,237.1376 L382.449036,237.3104 C382.065036,238.2128 380.893836,239.1728 379.607436,239.1728 C378.090636,239.1728 377.188236,238.5584 377.188236,236.2352 L377.188236,230.456 L376.228236,230.456 L376.170636,230.1296 L377.188236,230.1296 L377.188236,227.5568 L379.588236,227.1536 L379.588236,230.1296 L381.873036,230.1296 L381.796236,230.456 L379.588236,230.456 L379.588236,236.1776 C379.588236,237.2528 380.049036,237.8096 381.009036,237.8096 Z M387.610447,227.1152 C387.610447,227.8448 387.015247,228.4208 386.285647,228.4208 C385.556047,228.4208 384.980047,227.8448 384.980047,227.1152 C384.980047,226.3856 385.556047,225.8096 386.285647,225.8096 C387.015247,225.8096 387.610447,226.3856 387.610447,227.1152 Z M387.668047,236.6576 C387.668047,237.7328 387.764047,238.4816 388.455247,238.6736 L388.455247,239 L384.519247,239 L384.519247,238.6736 C385.248847,238.4432 385.287247,237.6368 385.287247,236.6576 L385.287247,232.3952 C385.287247,231.7424 385.095247,231.4736 384.308047,231.0512 L384.308047,230.7248 L387.668047,229.9568 L387.668047,236.6576 Z M395.671059,229.9568 C398.608659,229.9568 400.240659,232.0304 400.240659,234.5648 C400.240659,237.08 398.608659,239.1728 395.671059,239.1728 C392.752659,239.1728 391.101459,237.08 391.101459,234.5648 C391.101459,232.0304 392.752659,229.9568 395.671059,229.9568 Z M395.671059,238.8464 C397.053459,238.8464 397.399059,238.04 397.399059,234.5648 C397.399059,231.0896 397.053459,230.2832 395.671059,230.2832 C394.288659,230.2832 393.923859,231.0896 393.923859,234.5648 C393.923859,238.04 394.288659,238.8464 395.671059,238.8464 Z M411.258071,236.6576 C411.258071,237.7136 411.354071,238.5008 412.045271,238.6736 L412.045271,239 L408.090071,239 L408.090071,238.6736 C408.819671,238.4624 408.858071,237.6368 408.858071,236.6576 L408.858071,232.9328 C408.858071,232.0112 408.262871,231.3392 407.302871,231.3392 C406.554071,231.3392 405.670871,232.1456 405.670871,232.9136 L405.670871,236.696 C405.670871,237.752 405.786071,238.4816 406.458071,238.6736 L406.458071,239 L402.522071,239 L402.522071,238.6736 C403.251671,238.4624 403.270871,237.6752 403.270871,236.696 L403.270871,232.3568 C403.270871,231.6848 403.098071,231.4736 402.310871,231.0512 L402.310871,230.7248 L405.670871,229.9568 L405.670871,232.0112 C406.112471,230.84 407.629271,229.9568 408.838871,229.9568 C410.336471,229.9568 411.258071,230.552 411.258071,232.8752 L411.258071,236.6576 Z M417.053083,240.0176 C416.784283,240.44 416.323483,241.0544 415.440283,241.5344 L415.229083,241.2656 C416.323483,240.4208 416.573083,239.1728 416.265883,239.1344 C415.881883,239.096 415.497883,238.9808 415.190683,238.6736 C414.557083,238.0784 414.557083,237.0608 415.171483,236.4272 C415.785883,235.8128 416.803483,235.8128 417.417883,236.4272 C418.377883,237.3872 417.667483,239.096 417.053083,240.0176 Z M142.175153,259.5232 L142.443953,259.696 C142.175153,260.6752 141.023153,262.1728 138.623153,262.1728 C136.107953,262.1728 134.399153,259.7728 134.399153,257.5264 C134.399153,255.3184 136.088753,252.9568 139.371953,252.9568 C140.735153,252.9568 141.560753,253.5136 141.887153,253.8016 C142.213553,254.0896 142.405553,254.6272 142.271153,255.088 C142.079153,255.76 141.387953,256.2016 140.696753,256.0096 C140.005553,255.8368 139.602353,255.1264 139.794353,254.4544 C139.871153,254.0896 140.101553,253.84 140.389553,253.6864 C140.562353,253.6096 140.139953,253.2832 139.371953,253.2832 C138.680753,253.2832 136.818353,253.8784 136.818353,257.1808 C136.818353,259.2544 137.931953,260.176 139.256753,260.464 C140.216753,260.6752 141.733553,260.1568 142.175153,259.5232 Z M150.178164,253.0528 C150.581364,252.88 151.310964,252.9568 151.733364,253.3024 C152.328564,253.8208 152.386164,254.7424 151.867764,255.3184 C151.349364,255.9136 150.466164,255.9904 149.851764,255.472 C149.563764,255.2032 149.410164,254.8768 149.410164,254.5312 C149.410164,254.32 148.622964,254.512 147.912564,255.664 L147.912564,259.6576 C147.912564,260.7328 148.008564,261.4816 148.699764,261.6736 L148.699764,262 L144.725364,262 L144.725364,261.6736 C145.474164,261.4432 145.493364,260.656 145.493364,259.6576 L145.493364,255.3952 C145.493364,254.7424 145.320564,254.4544 144.533364,254.0512 L144.533364,253.7248 L147.912564,252.9568 L147.912564,255.1264 C148.930164,253.5328 149.717364,253.2448 150.178164,253.0528 Z M156.721976,257.0656 L160.485176,257.0656 C160.485176,254.6464 159.697976,253.2832 158.641976,253.2832 C157.509176,253.2832 156.721976,255.2224 156.721976,257.0656 Z M158.737976,252.9568 C161.521976,252.9568 162.827576,254.3968 162.827576,257.392 L156.721976,257.392 C156.875576,259.2736 157.835576,260.2528 159.121976,260.5408 C160.158776,260.7712 161.694776,260.3872 162.174776,259.4848 L162.501176,259.6576 C162.193976,260.656 161.061176,262.1728 158.488376,262.1728 C155.973176,262.1728 154.245176,259.8496 154.245176,257.6032 C154.245176,254.896 156.088376,252.9568 158.737976,252.9568 Z M170.504188,260.0224 L170.504188,257.4304 C168.622588,257.8528 167.988988,258.7552 167.988988,259.7344 C167.988988,259.7344 167.988988,261.0016 169.236988,261.0016 C169.889788,261.0016 170.331388,260.4832 170.504188,260.0224 Z M173.844988,261.0016 C173.844988,261.0016 174.248188,261.0016 174.363388,260.6752 L174.689788,260.8096 C174.536188,261.424 173.652988,262.1728 172.443388,262.1728 C172.443388,262.1728 170.734588,262.1728 170.523388,260.6176 C170.235388,261.4624 169.102588,262.1728 167.739388,262.1728 C167.739388,262.1728 165.531388,262.1728 165.531388,260.2144 C165.531388,258.1216 167.144188,257.9296 170.504188,257.0848 L170.504188,255.8944 C170.504188,253.8976 169.390588,252.8992 168.065788,253.5904 C167.451388,253.8976 167.374588,254.224 167.508988,254.2432 C167.796988,254.2816 168.046588,254.416 168.219388,254.6656 C168.564988,255.1648 168.430588,255.8368 167.931388,256.1824 C167.432188,256.5088 166.760188,256.3936 166.414588,255.8944 C166.184188,255.5296 166.164988,255.0688 166.356988,254.7424 C166.548988,254.416 166.798588,253.8976 167.854588,253.3408 C168.718588,252.88 169.716988,252.9568 169.716988,252.9568 C172.232188,252.9568 172.923388,254.5312 172.923388,256.7968 L172.923388,259.6576 C172.923388,259.6576 172.904188,261.0016 173.844988,261.0016 Z M181.1568,260.8096 C181.7136,260.8096 182.136,260.4256 182.3088,260.1376 L182.5968,260.3104 C182.2128,261.2128 181.0416,262.1728 179.7552,262.1728 C178.2384,262.1728 177.336,261.5584 177.336,259.2352 L177.336,253.456 L176.376,253.456 L176.3184,253.1296 L177.336,253.1296 L177.336,250.5568 L179.736,250.1536 L179.736,253.1296 L182.0208,253.1296 L181.944,253.456 L179.736,253.456 L179.736,259.1776 C179.736,260.2528 180.1968,260.8096 181.1568,260.8096 Z M187.758212,250.1152 C187.758212,250.8448 187.163012,251.4208 186.433412,251.4208 C185.703812,251.4208 185.127812,250.8448 185.127812,250.1152 C185.127812,249.3856 185.703812,248.8096 186.433412,248.8096 C187.163012,248.8096 187.758212,249.3856 187.758212,250.1152 Z M187.815812,259.6576 C187.815812,260.7328 187.911812,261.4816 188.603012,261.6736 L188.603012,262 L184.667012,262 L184.667012,261.6736 C185.396612,261.4432 185.435012,260.6368 185.435012,259.6576 L185.435012,255.3952 C185.435012,254.7424 185.243012,254.4736 184.455812,254.0512 L184.455812,253.7248 L187.815812,252.9568 L187.815812,259.6576 Z M196.164423,253.1296 L199.908423,253.1296 L199.908423,253.456 C199.466823,253.456 198.641223,253.4752 197.412423,256.432 L195.127623,262.1728 L194.820423,262.1728 C191.422023,254.8 191.249223,254.4736 191.249223,254.4736 C190.788423,253.456 190.289223,253.456 189.943623,253.456 L189.943623,253.1296 L194.474823,253.1296 L194.474823,253.456 C193.399623,253.456 194.110023,254.896 194.110023,254.896 L196.010823,258.9664 L197.066823,256.3552 C197.066823,256.3552 198.257223,253.456 196.164423,253.456 L196.164423,253.1296 Z M204.877835,250.1152 C204.877835,250.8448 204.282635,251.4208 203.553035,251.4208 C202.823435,251.4208 202.247435,250.8448 202.247435,250.1152 C202.247435,249.3856 202.823435,248.8096 203.553035,248.8096 C204.282635,248.8096 204.877835,249.3856 204.877835,250.1152 Z M204.935435,259.6576 C204.935435,260.7328 205.031435,261.4816 205.722635,261.6736 L205.722635,262 L201.786635,262 L201.786635,261.6736 C202.516235,261.4432 202.554635,260.6368 202.554635,259.6576 L202.554635,255.3952 C202.554635,254.7424 202.362635,254.4736 201.575435,254.0512 L201.575435,253.7248 L204.935435,252.9568 L204.935435,259.6576 Z M212.746447,260.8096 C213.303247,260.8096 213.725647,260.4256 213.898447,260.1376 L214.186447,260.3104 C213.802447,261.2128 212.631247,262.1728 211.344847,262.1728 C209.828047,262.1728 208.925647,261.5584 208.925647,259.2352 L208.925647,253.456 L207.965647,253.456 L207.908047,253.1296 L208.925647,253.1296 L208.925647,250.5568 L211.325647,250.1536 L211.325647,253.1296 L213.610447,253.1296 L213.533647,253.456 L211.325647,253.456 L211.325647,259.1776 C211.325647,260.2528 211.786447,260.8096 212.746447,260.8096 Z M221.843859,253.1296 L225.607059,253.1296 L225.607059,253.456 C225.203859,253.456 224.320659,253.4944 223.091859,256.4512 L220.154259,264.1888 C219.655059,265.4944 219.079059,266.032 218.714259,266.32 C218.368659,266.608 217.696659,266.7232 217.235859,266.512 C216.563859,266.2048 216.275859,265.4176 216.563859,264.7456 C216.871059,264.0736 217.658259,263.7664 218.330259,264.0736 C218.675859,264.2272 218.887059,264.5344 218.983059,264.8608 C219.059859,265.0912 219.520659,264.9568 219.827859,264.1504 L220.557459,262.1728 C219.367059,259.4272 216.928659,254.2048 216.928659,254.2048 C216.621459,253.456 216.007059,253.456 215.719059,253.456 L215.719059,253.1296 L220.250259,253.1296 L220.250259,253.456 C219.251859,253.456 219.751059,254.6272 219.751059,254.6272 L221.786259,258.9664 L222.803859,256.3744 C222.803859,256.3744 224.071059,253.4368 221.843859,253.456 L221.843859,253.1296 Z M239.001882,260.0224 L239.001882,257.4304 C237.120282,257.8528 236.486682,258.7552 236.486682,259.7344 C236.486682,259.7344 236.486682,261.0016 237.734682,261.0016 C238.387482,261.0016 238.829082,260.4832 239.001882,260.0224 Z M242.342682,261.0016 C242.342682,261.0016 242.745882,261.0016 242.861082,260.6752 L243.187482,260.8096 C243.033882,261.424 242.150682,262.1728 240.941082,262.1728 C240.941082,262.1728 239.232282,262.1728 239.021082,260.6176 C238.733082,261.4624 237.600282,262.1728 236.237082,262.1728 C236.237082,262.1728 234.029082,262.1728 234.029082,260.2144 C234.029082,258.1216 235.641882,257.9296 239.001882,257.0848 L239.001882,255.8944 C239.001882,253.8976 237.888282,252.8992 236.563482,253.5904 C235.949082,253.8976 235.872282,254.224 236.006682,254.2432 C236.294682,254.2816 236.544282,254.416 236.717082,254.6656 C237.062682,255.1648 236.928282,255.8368 236.429082,256.1824 C235.929882,256.5088 235.257882,256.3936 234.912282,255.8944 C234.681882,255.5296 234.662682,255.0688 234.854682,254.7424 C235.046682,254.416 235.296282,253.8976 236.352282,253.3408 C237.216282,252.88 238.214682,252.9568 238.214682,252.9568 C240.729882,252.9568 241.421082,254.5312 241.421082,256.7968 L241.421082,259.6576 C241.421082,259.6576 241.401882,261.0016 242.342682,261.0016 Z M253.628894,259.6576 C253.628894,260.7136 253.724894,261.5008 254.416094,261.6736 L254.416094,262 L250.460894,262 L250.460894,261.6736 C251.190494,261.4624 251.228894,260.6368 251.228894,259.6576 L251.228894,255.9328 C251.228894,255.0112 250.633694,254.3392 249.673694,254.3392 C248.924894,254.3392 248.041694,255.1456 248.041694,255.9136 L248.041694,259.696 C248.041694,260.752 248.156894,261.4816 248.828894,261.6736 L248.828894,262 L244.892894,262 L244.892894,261.6736 C245.622494,261.4624 245.641694,260.6752 245.641694,259.696 L245.641694,255.3568 C245.641694,254.6848 245.468894,254.4736 244.681694,254.0512 L244.681694,253.7248 L248.041694,252.9568 L248.041694,255.0112 C248.483294,253.84 250.000094,252.9568 251.209694,252.9568 C252.707294,252.9568 253.628894,253.552 253.628894,255.8752 L253.628894,259.6576 Z M263.628706,259.1968 L263.628706,256.4896 C263.628706,254.0704 262.438306,253.2832 261.343906,253.2832 C259.942306,253.2832 259.327906,254.3392 259.327906,257.2576 C259.327906,260.3488 259.961506,261.5008 261.516706,261.5008 C262.822306,261.5008 263.628706,260.5408 263.628706,259.1968 Z M266.009506,260.1376 C266.009506,261.0784 266.201506,261.3088 266.988706,261.4048 L266.988706,261.7312 L264.166306,262.1536 C263.628706,262.2304 263.628706,261.808 263.628706,261.808 L263.628706,260.6176 C263.014306,261.7504 261.593506,262.1728 260.691106,262.1728 C258.521506,262.1728 256.601506,260.464 256.601506,257.4304 C256.601506,254.3392 258.636706,252.9568 261.324706,252.9568 C262.207906,252.9568 263.014306,253.168 263.628706,253.5328 L263.628706,249.8656 C263.628706,249.1936 263.436706,249.0016 262.649506,248.7136 L262.649506,248.3872 L266.009506,247.6768 L266.009506,260.1376 Z M283.263529,259.5232 L283.532329,259.696 C283.263529,260.6752 282.111529,262.1728 279.711529,262.1728 C277.196329,262.1728 275.487529,259.7728 275.487529,257.5264 C275.487529,255.3184 277.177129,252.9568 280.460329,252.9568 C281.823529,252.9568 282.649129,253.5136 282.975529,253.8016 C283.301929,254.0896 283.493929,254.6272 283.359529,255.088 C283.167529,255.76 282.476329,256.2016 281.785129,256.0096 C281.093929,255.8368 280.690729,255.1264 280.882729,254.4544 C280.959529,254.0896 281.189929,253.84 281.477929,253.6864 C281.650729,253.6096 281.228329,253.2832 280.460329,253.2832 C279.769129,253.2832 277.906729,253.8784 277.906729,257.1808 C277.906729,259.2544 279.020329,260.176 280.345129,260.464 C281.305129,260.6752 282.821929,260.1568 283.263529,259.5232 Z M294.818541,260.2336 C294.818541,261.1552 294.991341,261.232 295.797741,261.328 L295.797741,261.6544 L292.956141,262.1536 C292.437741,262.2304 292.418541,261.7888 292.418541,261.7888 L292.418541,260.0992 C291.957741,261.1936 290.364141,262.1728 289.173741,262.1728 C287.656941,262.1728 286.754541,261.5392 286.754541,259.2352 L286.754541,255.1264 C286.754541,253.9744 286.792941,253.8016 285.679341,253.648 L285.679341,253.3216 L289.135341,252.9568 L289.135341,259.1776 C289.135341,260.2528 289.634541,260.7712 290.748141,260.7712 C291.285741,260.7712 292.015341,260.2912 292.418541,259.5232 L292.418541,255.184 C292.418541,254.0128 292.495341,253.7632 291.516141,253.648 L291.516141,253.3216 L294.818541,252.9568 L294.818541,260.2336 Z M303.167153,253.0528 C303.570353,252.88 304.299953,252.9568 304.722353,253.3024 C305.317553,253.8208 305.375153,254.7424 304.856753,255.3184 C304.338353,255.9136 303.455153,255.9904 302.840753,255.472 C302.552753,255.2032 302.399153,254.8768 302.399153,254.5312 C302.399153,254.32 301.611953,254.512 300.901553,255.664 L300.901553,259.6576 C300.901553,260.7328 300.997553,261.4816 301.688753,261.6736 L301.688753,262 L297.714353,262 L297.714353,261.6736 C298.463153,261.4432 298.482353,260.656 298.482353,259.6576 L298.482353,255.3952 C298.482353,254.7424 298.309553,254.4544 297.522353,254.0512 L297.522353,253.7248 L300.901553,252.9568 L300.901553,255.1264 C301.919153,253.5328 302.706353,253.2448 303.167153,253.0528 Z M310.382965,250.1152 C310.382965,250.8448 309.787765,251.4208 309.058165,251.4208 C308.328565,251.4208 307.752565,250.8448 307.752565,250.1152 C307.752565,249.3856 308.328565,248.8096 309.058165,248.8096 C309.787765,248.8096 310.382965,249.3856 310.382965,250.1152 Z M310.440565,259.6576 C310.440565,260.7328 310.536565,261.4816 311.227765,261.6736 L311.227765,262 L307.291765,262 L307.291765,261.6736 C308.021365,261.4432 308.059765,260.6368 308.059765,259.6576 L308.059765,255.3952 C308.059765,254.7424 307.867765,254.4736 307.080565,254.0512 L307.080565,253.7248 L310.440565,252.9568 L310.440565,259.6576 Z M318.443577,252.9568 C321.381177,252.9568 323.013177,255.0304 323.013177,257.5648 C323.013177,260.08 321.381177,262.1728 318.443577,262.1728 C315.525177,262.1728 313.873977,260.08 313.873977,257.5648 C313.873977,255.0304 315.525177,252.9568 318.443577,252.9568 Z M318.443577,261.8464 C319.825977,261.8464 320.171577,261.04 320.171577,257.5648 C320.171577,254.0896 319.825977,253.2832 318.443577,253.2832 C317.061177,253.2832 316.696377,254.0896 316.696377,257.5648 C316.696377,261.04 317.061177,261.8464 318.443577,261.8464 Z M330.708988,257.0272 C332.417788,258.0832 332.993788,259.7536 332.033788,261.136 C332.033788,261.136 331.304188,262.1728 329.345788,262.1728 C327.022588,262.1728 325.870588,261.2896 325.870588,261.2896 L325.870588,258.8704 L326.196988,258.8704 C326.484988,259.6192 327.099388,261.8464 329.345788,261.8464 C330.708988,261.8464 330.939388,260.1184 329.480188,259.1584 L327.540988,257.9872 C325.678588,256.8544 325.179388,255.2992 326.235388,253.9168 C326.235388,253.9168 326.964988,252.9568 328.884988,252.9568 C331.092988,252.9568 332.052988,253.5328 332.052988,253.5328 L332.052988,255.6832 L331.726588,255.6832 C331.476988,255.0112 330.862588,253.2832 328.884988,253.2832 C327.636988,253.2832 327.099388,254.7616 328.769788,255.8176 L330.708988,257.0272 Z M338.3856,250.1152 C338.3856,250.8448 337.7904,251.4208 337.0608,251.4208 C336.3312,251.4208 335.7552,250.8448 335.7552,250.1152 C335.7552,249.3856 336.3312,248.8096 337.0608,248.8096 C337.7904,248.8096 338.3856,249.3856 338.3856,250.1152 Z M338.4432,259.6576 C338.4432,260.7328 338.5392,261.4816 339.2304,261.6736 L339.2304,262 L335.2944,262 L335.2944,261.6736 C336.024,261.4432 336.0624,260.6368 336.0624,259.6576 L336.0624,255.3952 C336.0624,254.7424 335.8704,254.4736 335.0832,254.0512 L335.0832,253.7248 L338.4432,252.9568 L338.4432,259.6576 Z M346.254212,260.8096 C346.811012,260.8096 347.233412,260.4256 347.406212,260.1376 L347.694212,260.3104 C347.310212,261.2128 346.139012,262.1728 344.852612,262.1728 C343.335812,262.1728 342.433412,261.5584 342.433412,259.2352 L342.433412,253.456 L341.473412,253.456 L341.415812,253.1296 L342.433412,253.1296 L342.433412,250.5568 L344.833412,250.1536 L344.833412,253.1296 L347.118212,253.1296 L347.041412,253.456 L344.833412,253.456 L344.833412,259.1776 C344.833412,260.2528 345.294212,260.8096 346.254212,260.8096 Z M355.351624,253.1296 L359.114824,253.1296 L359.114824,253.456 C358.711624,253.456 357.828424,253.4944 356.599624,256.4512 L353.662024,264.1888 C353.162824,265.4944 352.586824,266.032 352.222024,266.32 C351.876424,266.608 351.204424,266.7232 350.743624,266.512 C350.071624,266.2048 349.783624,265.4176 350.071624,264.7456 C350.378824,264.0736 351.166024,263.7664 351.838024,264.0736 C352.183624,264.2272 352.394824,264.5344 352.490824,264.8608 C352.567624,265.0912 353.028424,264.9568 353.335624,264.1504 L354.065224,262.1728 C352.874824,259.4272 350.436424,254.2048 350.436424,254.2048 C350.129224,253.456 349.514824,253.456 349.226824,253.456 L349.226824,253.1296 L353.758024,253.1296 L353.758024,253.456 C352.759624,253.456 353.258824,254.6272 353.258824,254.6272 L355.294024,258.9664 L356.311624,256.3744 C356.311624,256.3744 357.578824,253.4368 355.351624,253.456 L355.351624,253.1296 Z M363.930636,251.9776 C363.661836,252.4 363.201036,253.0144 362.317836,253.4944 L362.106636,253.2256 C363.201036,252.3808 363.450636,251.1328 363.143436,251.0944 C362.759436,251.056 362.375436,250.9408 362.068236,250.6336 C361.434636,250.0384 361.434636,249.0208 362.049036,248.3872 C362.663436,247.7728 363.681036,247.7728 364.295436,248.3872 C365.255436,249.3472 364.545036,251.056 363.930636,251.9776 Z M368.730636,251.9776 C368.461836,252.4 368.001036,253.0144 367.117836,253.4944 L366.906636,253.2256 C368.001036,252.3808 368.250636,251.1328 367.943436,251.0944 C367.559436,251.056 367.175436,250.9408 366.868236,250.6336 C366.234636,250.0384 366.234636,249.0208 366.849036,248.3872 C367.463436,247.7728 368.481036,247.7728 369.095436,248.3872 C370.055436,249.3472 369.345036,251.056 368.730636,251.9776 Z" id="“An-combination-of-d" fill="#000000"></path>
                        <g id="Group-2">
                            <text id="Michael-van-der-Jagt" font-family="Butler-Bold, Butler" font-size="64" font-weight="bold" letter-spacing="3.76470566" fill="#000000">
                                <tspan x="18.7760019" y="130">          Michael</tspan>
                                <tspan x="52.9877661" y="194">van der Jagt</tspan>
                            </text>
                            <g id="Group-30" transform="translate(173.000000, 0.000000)">
                                <path d="M22.3494122,2.39 C20.9394122,2.66 21.0294122,3.86 21.0294122,6.17 L21.0294122,18.92 C21.0294122,21.38 20.7894122,22.07 22.3494122,22.49 L22.3494122,23 L16.1094122,23 L16.1094122,22.49 C16.9194122,22.19 16.8294122,21.38 16.8294122,18.92 L16.8294122,13.19 L9.56941215,13.19 L9.56941215,18.92 C9.56941215,21.38 9.44941215,22.19 10.2894122,22.49 L10.2894122,23 L4.01941215,23 L4.01941215,22.49 C5.60941215,22.07 5.36941215,21.38 5.36941215,18.92 L5.36941215,6.17 C5.36941215,3.86 5.45941215,2.66 4.01941215,2.39 L4.01941215,1.88 L10.2894122,1.88 L10.2894122,2.39 C9.44941215,2.66 9.56941215,3.86 9.56941215,6.17 L9.56941215,12.59 L16.8294122,12.59 L16.8294122,6.17 C16.8294122,3.86 16.9494122,2.66 16.1094122,2.39 L16.1094122,1.88 L22.3494122,1.88 L22.3494122,2.39 Z M29.1058827,15.29 L34.9858827,15.29 C34.9858827,11.51 33.7558827,9.38 32.1058827,9.38 C30.3358827,9.38 29.1058827,12.41 29.1058827,15.29 Z M32.2558827,8.87 C36.6058827,8.87 38.6458827,11.12 38.6458827,15.8 L29.1058827,15.8 C29.3458827,18.74 30.8458827,20.27 32.8558827,20.72 C34.4758827,21.08 36.8758827,20.48 37.6258827,19.07 L38.1358827,19.34 C37.6558827,20.9 35.8858827,23.27 31.8658827,23.27 C27.9358827,23.27 25.2358827,19.64 25.2358827,16.13 C25.2358827,11.9 28.1158827,8.87 32.2558827,8.87 Z M46.9923532,19.37 C46.9923532,21.02 47.1423532,22.22 48.1923532,22.49 L48.1923532,23 L42.0423532,23 L42.0423532,22.49 C43.1823532,22.16 43.2423532,20.9 43.2423532,19.37 L43.2423532,4.19 C43.2423532,3.14 42.9423532,2.69 41.7423532,2.24 L41.7423532,1.73 L46.9923532,0.62 L46.9923532,19.37 Z M56.1188237,19.37 C56.1188237,21.02 56.2688237,22.22 57.3188237,22.49 L57.3188237,23 L51.1688237,23 L51.1688237,22.49 C52.3088237,22.16 52.3688237,20.9 52.3688237,19.37 L52.3688237,4.19 C52.3688237,3.14 52.0688237,2.69 50.8688237,2.24 L50.8688237,1.73 L56.1188237,0.62 L56.1188237,19.37 Z M67.6752942,8.87 C72.2652942,8.87 74.8152942,12.11 74.8152942,16.07 C74.8152942,20 72.2652942,23.27 67.6752942,23.27 C63.1152942,23.27 60.5352942,20 60.5352942,16.07 C60.5352942,12.11 63.1152942,8.87 67.6752942,8.87 Z M67.6752942,22.76 C69.8352942,22.76 70.3752942,21.5 70.3752942,16.07 C70.3752942,10.64 69.8352942,9.38 67.6752942,9.38 C65.5152942,9.38 64.9452942,10.64 64.9452942,16.07 C64.9452942,21.5 65.5152942,22.76 67.6752942,22.76 Z M80.7617647,24.06 C80.4817647,24.5 80.0017647,25.14 79.0817647,25.64 L78.8617647,25.36 C80.0017647,24.48 80.2617647,23.18 79.9417647,23.14 C79.5417647,23.1 79.1417647,22.98 78.8217647,22.66 C78.1617647,22.04 78.1617647,20.98 78.8017647,20.32 C79.4417647,19.68 80.5017647,19.68 81.1417647,20.32 C82.1417647,21.32 81.4017647,23.1 80.7617647,24.06 Z M90.2947058,8.92 L96.5947058,8.92 L96.5947058,9.26 C95.7347058,9.26 94.8947058,9.8 94.8947058,11.04 L94.8947058,20.58 C94.8947058,21.94 95.7547058,22.66 96.5947058,22.66 L96.5947058,23 L90.2947058,23 L90.2947058,22.66 C91.1547058,22.66 91.9947058,21.94 91.9947058,20.58 L91.9947058,11.04 C91.9947058,9.8 91.1747058,9.26 90.2947058,9.26 L90.2947058,8.92 Z M110.967647,20.94 L110.967647,18.24 C109.007647,18.68 108.347647,19.62 108.347647,20.64 C108.347647,20.64 108.347647,21.96 109.647647,21.96 C110.327647,21.96 110.787647,21.42 110.967647,20.94 Z M114.447647,21.96 C114.447647,21.96 114.867647,21.96 114.987647,21.62 L115.327647,21.76 C115.167647,22.4 114.247647,23.18 112.987647,23.18 C112.987647,23.18 111.207647,23.18 110.987647,21.56 C110.687647,22.44 109.507647,23.18 108.087647,23.18 C108.087647,23.18 105.787647,23.18 105.787647,21.14 C105.787647,18.96 107.467647,18.76 110.967647,17.88 L110.967647,16.64 C110.967647,14.56 109.807647,13.52 108.427647,14.24 C107.787647,14.56 107.707647,14.9 107.847647,14.92 C108.147647,14.96 108.407647,15.1 108.587647,15.36 C108.947647,15.88 108.807647,16.58 108.287647,16.94 C107.767647,17.28 107.067647,17.16 106.707647,16.64 C106.467647,16.26 106.447647,15.78 106.647647,15.44 C106.847647,15.1 107.107647,14.56 108.207647,13.98 C109.107647,13.5 110.147647,13.58 110.147647,13.58 C112.767647,13.58 113.487647,15.22 113.487647,17.58 L113.487647,20.56 C113.487647,20.56 113.467647,21.96 114.447647,21.96 Z M132.284117,22.66 L132.284117,23 L128.164117,23 L128.164117,22.66 C128.924117,22.44 128.964117,21.58 128.964117,20.56 L128.964117,16.68 C128.964117,15.56 128.404117,15.02 127.504117,15.02 C126.764117,15.02 125.924117,15.92 125.924117,16.72 L125.924117,20.56 C125.924117,21.66 126.024117,22.48 126.744117,22.66 L126.744117,23 L122.624117,23 L122.624117,22.66 C123.384117,22.44 123.424117,21.58 123.424117,20.56 L123.424117,16.68 C123.424117,15.56 122.884117,15.02 121.984117,15.02 C121.244117,15.02 120.384117,15.94 120.384117,16.66 L120.384117,20.6 C120.384117,21.7 120.504117,22.46 121.204117,22.66 L121.204117,23 L117.104117,23 L117.104117,22.66 C117.864117,22.44 117.884117,21.62 117.884117,20.6 L117.884117,16.22 C117.884117,15.52 117.704117,15.16 116.884117,14.72 L116.884117,14.38 L120.384117,13.58 L120.384117,15.64 C120.924117,14.48 122.144117,13.58 123.404117,13.58 C124.804117,13.58 125.664117,14.22 125.904117,15.7 C126.324117,14.48 127.684117,13.58 128.944117,13.58 C130.504117,13.58 131.464117,14.2 131.464117,16.62 L131.464117,20.56 C131.464117,21.66 131.564117,22.48 132.284117,22.66 Z" id="Hello,-I-am" fill="#000000"></path>
                                <path d="M0.5,23.5 L136.514705,23.5" id="Line-4" stroke="#000000" stroke-linecap="square"></path>
                            </g>
                            <text id="Danny" font-family="BirdsofParadise-PersonaluseOnly, Birds of Paradise  Personal use" font-size="79.8336" font-weight="normal" fill="#1B1B1B">
                                <tspan x="0" y="130">Danny</tspan>
                            </text>
                        </g>
                    </g>
                </g>
            </g>
        </g>
    </g>
</svg>