<?xml version="1.0" encoding="UTF-8"?>
<svg width="441px" height="189px" viewBox="0 0 441 189" version="1.1" xmlns="http://www.w3.org/2000/svg" xmlns:xlink="http://www.w3.org/1999/xlink">
    <!-- Generator: Sketch 53.2 (72643) - https://sketchapp.com -->
    <title>welcome-logo</title>
    <desc>Created with Sketch.</desc>
    <g id="Website-(new)" stroke="none" stroke-width="1" fill="none" fill-rule="evenodd">
        <g id="Desktop-HD-Copy-2" transform="translate(-951.000000, -186.000000)">
            <g id="welcome-logo" transform="translate(951.000000, 186.000000)">
                <g id="Group-26">
                    <rect id="Rectangle-7" fill="#D6F8F1" x="195" y="0" width="246" height="52"></rect>
                    <g id="Group-17" transform="translate(0.000000, 7.000000)" fill-rule="nonzero">
                        <path d="M229.48,6.52 C227.6,6.88 227.72,8.48 227.72,11.56 L227.72,28.56 C227.72,31.84 227.4,32.76 229.48,33.32 L229.48,34 L221.16,34 L221.16,33.32 C222.24,32.92 222.12,31.84 222.12,28.56 L222.12,20.92 L212.44,20.92 L212.44,28.56 C212.44,31.84 212.28,32.92 213.4,33.32 L213.4,34 L205.04,34 L205.04,33.32 C207.16,32.76 206.84,31.84 206.84,28.56 L206.84,11.56 C206.84,8.48 206.96,6.88 205.04,6.52 L205.04,5.84 L213.4,5.84 L213.4,6.52 C212.28,6.88 212.44,8.48 212.44,11.56 L212.44,20.12 L222.12,20.12 L222.12,11.56 C222.12,8.48 222.28,6.88 221.16,6.52 L221.16,5.84 L229.48,5.84 L229.48,6.52 Z M239.037647,23.72 L246.877647,23.72 C246.877647,18.68 245.237647,15.84 243.037647,15.84 C240.677647,15.84 239.037647,19.88 239.037647,23.72 Z M243.237647,15.16 C249.037647,15.16 251.757647,18.16 251.757647,24.4 L239.037647,24.4 C239.357647,28.32 241.357647,30.36 244.037647,30.96 C246.197647,31.44 249.397647,30.64 250.397647,28.76 L251.077647,29.12 C250.437647,31.2 248.077647,34.36 242.717647,34.36 C237.477647,34.36 233.877647,29.52 233.877647,24.84 C233.877647,19.2 237.717647,15.16 243.237647,15.16 Z M263.435294,29.16 C263.435294,31.36 263.635294,32.96 265.035294,33.32 L265.035294,34 L256.835294,34 L256.835294,33.32 C258.355294,32.88 258.435294,31.2 258.435294,29.16 L258.435294,8.92 C258.435294,7.52 258.035294,6.92 256.435294,6.32 L256.435294,5.64 L263.435294,4.16 L263.435294,29.16 Z M276.152941,29.16 C276.152941,31.36 276.352941,32.96 277.752941,33.32 L277.752941,34 L269.552941,34 L269.552941,33.32 C271.072941,32.88 271.152941,31.2 271.152941,29.16 L271.152941,8.92 C271.152941,7.52 270.752941,6.92 269.152941,6.32 L269.152941,5.64 L276.152941,4.16 L276.152941,29.16 Z M292.110588,15.16 C298.230588,15.16 301.630588,19.48 301.630588,24.76 C301.630588,30 298.230588,34.36 292.110588,34.36 C286.030588,34.36 282.590588,30 282.590588,24.76 C282.590588,19.48 286.030588,15.16 292.110588,15.16 Z M292.110588,33.68 C294.990588,33.68 295.710588,32 295.710588,24.76 C295.710588,17.52 294.990588,15.84 292.110588,15.84 C289.230588,15.84 288.470588,17.52 288.470588,24.76 C288.470588,32 289.230588,33.68 292.110588,33.68 Z M312.508235,36.12 C311.948235,37 310.988235,38.28 309.148235,39.28 L308.708235,38.72 C310.988235,36.96 311.508235,34.36 310.868235,34.28 C310.068235,34.2 309.268235,33.96 308.628235,33.32 C307.308235,32.08 307.308235,29.96 308.588235,28.64 C309.868235,27.36 311.988235,27.36 313.268235,28.64 C315.268235,30.64 313.788235,34.2 312.508235,36.12 Z M331.103529,5.84 L343.703529,5.84 L343.703529,6.52 C341.983529,6.52 340.303529,7.6 340.303529,10.08 L340.303529,29.16 C340.303529,31.88 342.023529,33.32 343.703529,33.32 L343.703529,34 L331.103529,34 L331.103529,33.32 C332.823529,33.32 334.503529,31.88 334.503529,29.16 L334.503529,10.08 C334.503529,7.6 332.863529,6.52 331.103529,6.52 L331.103529,5.84 Z M371.978823,29.88 L371.978823,24.48 C368.058823,25.36 366.738823,27.24 366.738823,29.28 C366.738823,29.28 366.738823,31.92 369.338823,31.92 C370.698823,31.92 371.618823,30.84 371.978823,29.88 Z M378.938823,31.92 C378.938823,31.92 379.778823,31.92 380.018823,31.24 L380.698823,31.52 C380.378823,32.8 378.538823,34.36 376.018823,34.36 C376.018823,34.36 372.458823,34.36 372.018823,31.12 C371.418823,32.88 369.058823,34.36 366.218823,34.36 C366.218823,34.36 361.618823,34.36 361.618823,30.28 C361.618823,25.92 364.978823,25.52 371.978823,23.76 L371.978823,21.28 C371.978823,17.12 369.658823,15.04 366.898823,16.48 C365.618823,17.12 365.458823,17.8 365.738823,17.84 C366.338823,17.92 366.858823,18.2 367.218823,18.72 C367.938823,19.76 367.658823,21.16 366.618823,21.88 C365.578823,22.56 364.178823,22.32 363.458823,21.28 C362.978823,20.52 362.938823,19.56 363.338823,18.88 C363.738823,18.2 364.258823,17.12 366.458823,15.96 C368.258823,15 370.338823,15.16 370.338823,15.16 C375.578823,15.16 377.018823,18.44 377.018823,23.16 L377.018823,29.12 C377.018823,29.12 376.978823,31.92 378.938823,31.92 Z M414.37647,33.32 L414.37647,34 L406.13647,34 L406.13647,33.32 C407.65647,32.88 407.73647,31.16 407.73647,29.12 L407.73647,21.36 C407.73647,19.12 406.61647,18.04 404.81647,18.04 C403.33647,18.04 401.65647,19.84 401.65647,21.44 L401.65647,29.12 C401.65647,31.32 401.85647,32.96 403.29647,33.32 L403.29647,34 L395.05647,34 L395.05647,33.32 C396.57647,32.88 396.65647,31.16 396.65647,29.12 L396.65647,21.36 C396.65647,19.12 395.57647,18.04 393.77647,18.04 C392.29647,18.04 390.57647,19.88 390.57647,21.32 L390.57647,29.2 C390.57647,31.4 390.81647,32.92 392.21647,33.32 L392.21647,34 L384.01647,34 L384.01647,33.32 C385.53647,32.88 385.57647,31.24 385.57647,29.2 L385.57647,20.44 C385.57647,19.04 385.21647,18.32 383.57647,17.44 L383.57647,16.76 L390.57647,15.16 L390.57647,19.28 C391.65647,16.96 394.09647,15.16 396.61647,15.16 C399.41647,15.16 401.13647,16.44 401.61647,19.4 C402.45647,16.96 405.17647,15.16 407.69647,15.16 C410.81647,15.16 412.73647,16.4 412.73647,21.24 L412.73647,29.12 C412.73647,31.32 412.93647,32.96 414.37647,33.32 Z" id="Hello,Iam" fill="#000000"></path>
                        <path d="M85.1192576,61.6707584 C89.1641802,54.9647025 93.6082062,48.5248565 98.4514688,42.3510272 C103.294731,36.1771979 109.069304,31.0678986 115.77536,27.022976 C117.478485,26.064968 119.181585,25.1335853 120.88471,24.2288 C122.587836,23.3240147 124.397379,22.5522976 126.313395,21.9136256 C127.910075,21.3813989 129.772841,20.8225693 131.901747,20.23712 C134.030654,19.6516707 135.946641,19.6250597 137.649766,20.1572864 C139.565782,20.6895131 140.470554,21.514452 140.364109,22.632128 C140.257663,23.749804 139.246448,24.5215211 137.330432,24.9473024 C133.604845,25.7988651 130.251868,27.6616304 127.271398,30.5356544 C124.50382,33.0903424 122.135447,35.9377123 120.166208,39.0778496 C118.196969,42.2179869 116.307593,45.4379099 114.498022,48.7377152 C112.26267,52.4633018 110.160407,56.2952763 108.191168,60.2337536 C106.221929,64.1722309 104.172887,68.163871 102.043981,72.2087936 C99.9150742,76.3601616 97.7329776,80.5380782 95.4976256,84.7426688 C93.2622736,88.9472594 90.8140677,93.0187323 88.1529344,96.9572096 C85.3853558,101.002132 82.4049312,104.754274 79.2115712,108.213747 C76.0182112,111.67322 72.7184554,115.212475 69.3122048,118.831616 C73.0377914,120.747632 76.9229878,122.317677 80.9679104,123.541798 C85.012833,124.76592 89.1109168,125.484415 93.2622848,125.697306 C97.4136528,125.910196 101.485126,125.511032 105.476826,124.499802 C109.468526,123.488571 113.273889,121.75886 116.89303,119.310618 C123.492641,114.733468 128.974493,108.958896 133.338752,101.986726 C137.703011,95.0145571 141.268876,87.8029941 144.036454,80.3518208 C145.846025,75.3488902 147.442681,69.8138159 148.82647,63.746432 C150.21026,57.6790481 150.875533,51.6117551 150.82231,45.5443712 C150.769088,39.4769873 149.731261,33.7290255 147.7088,28.3003136 C145.686339,22.8716017 142.226917,18.294521 137.330432,14.5689344 C133.924181,12.0142464 130.251872,10.1248701 126.313395,8.9007488 C122.374918,7.67662748 118.303445,6.9847432 114.098854,6.8250752 C109.894264,6.6654072 105.689736,6.90490561 101.485146,7.5435776 C97.280555,8.18224959 93.262304,9.03379948 89.430272,10.0982528 C81.5533174,12.4400501 74.2619215,15.9260824 67.5558656,20.5564544 C60.8498097,25.1868264 55.2082917,30.9081771 50.6311424,37.7206784 C49.2473531,39.7431397 47.9434173,42.058291 46.719296,44.6662016 C45.4951747,47.2741122 44.5105701,49.9618166 43.7654528,52.7293952 C43.0203355,55.4969738 42.6477824,58.264511 42.6477824,61.0320896 C42.6477824,63.7996682 43.2332229,66.3543179 44.4041216,68.6961152 C45.8943563,71.7830298 48.2627294,73.8852936 51.509312,75.0029696 C54.7558946,76.1206456 58.0290395,76.2537003 61.3288448,75.4021376 C63.1384154,74.9763563 64.7616824,74.3110829 66.1986944,73.4062976 C67.6357064,72.5015123 69.1525296,71.5169077 70.7492096,70.4524544 C71.2814363,70.1331184 71.8934877,69.89362 72.5853824,69.733952 C73.2772771,69.574284 73.8627176,69.574284 74.3417216,69.733952 C74.8207256,69.89362 75.1666677,70.2129512 75.3795584,70.6919552 C75.5924491,71.1709592 75.5392272,71.8362325 75.2198912,72.6877952 C74.6876645,73.8586939 73.8627256,74.9763531 72.7450496,76.0408064 C71.6273736,77.1052597 70.4032707,78.0898643 69.072704,78.9946496 C67.7421373,79.8994349 66.4115907,80.7243739 65.081024,81.4694912 C63.7504573,82.2146085 62.5529653,82.8532709 61.488512,83.3854976 C58.4015974,84.9821776 55.1284525,86.1530587 51.6689792,86.898176 C48.2095059,87.6432933 44.7766954,87.6432933 41.3704448,86.898176 C37.3255222,85.940168 34.185432,84.1572354 31.95008,81.5493248 C29.714728,78.9414142 28.1712939,75.9343786 27.3197312,72.528128 C26.4681685,69.1218774 26.2286701,65.5294013 26.6012288,61.750592 C26.9737875,57.9717827 27.7455045,54.4325285 28.9164032,51.1327232 C31.4710912,44.0008859 35.170011,37.5610399 40.0132736,31.812992 C44.8565362,26.0649441 50.3916105,21.0886994 56.6186624,16.8841088 C62.8457143,12.6795182 69.5516697,9.24670771 76.7367296,6.5855744 C83.9217895,3.92444109 91.1333526,2.11489759 98.3716352,1.1568896 C105.077691,0.19888161 111.916701,0.0658269405 118.88887,0.7577216 C125.86104,1.44961626 132.43394,3.15271603 138.60777,5.867072 C144.781599,8.58142797 150.263451,12.3069587 155.053491,17.043776 C159.843531,21.7805933 163.356174,27.7148315 165.591526,34.8466688 C167.933324,42.2978421 168.917928,49.8819582 168.54537,57.5992448 C168.172811,65.3165314 166.682599,72.7942038 164.074688,80.0324864 C161.466777,87.270769 157.900912,94.0565571 153.376986,100.390054 C148.853059,106.723552 143.557483,112.178793 137.490099,116.755942 C130.571153,122.078209 122.907204,126.309347 114.498022,129.449485 C106.088841,132.589622 97.5733423,134.266111 88.9512704,134.479002 C84.1612304,134.691892 79.6107608,134.266117 75.2997248,133.201664 C70.9886888,132.137211 66.5446629,131.125995 61.9675136,130.167987 C59.838607,129.635761 57.7363432,129.34304 55.6606592,129.289818 C53.5849752,129.236595 51.4827114,129.529315 49.3538048,130.167987 C46.9055622,130.700214 44.5904109,131.338876 42.4082816,132.083994 C40.2261523,132.829111 37.911001,133.467773 35.4627584,134 C30.9920544,134.958008 26.4681957,135.516838 21.8910464,135.676506 C17.3138971,135.836174 12.8964821,135.011235 8.6386688,133.201664 C7.04198882,132.562992 5.57838745,131.684831 4.2478208,130.567155 C2.91725415,129.449479 1.87942773,128.225376 1.1343104,126.89481 C0.389193074,125.564243 0.01664,124.100642 0.01664,122.503962 C0.01664,120.907282 0.655302413,119.310626 1.9326464,117.713946 C3.10354505,116.223711 4.51392455,115.026219 6.1638272,114.121434 C7.81372985,113.216648 9.54344055,112.498153 11.3530112,111.965926 C13.1625818,111.4337 15.0253472,111.061147 16.9413632,110.848256 C18.8573792,110.635365 20.7201446,110.528922 22.5297152,110.528922 C25.1908485,110.528922 27.825331,110.874864 30.4332416,111.566758 C33.0411522,112.258653 35.6490238,112.923926 38.2569344,113.562598 C40.864845,114.20127 43.5525494,114.600434 46.320128,114.760102 C49.0877066,114.91977 52.0149094,114.467385 55.101824,113.402931 L85.1192576,61.6707584 Z M41.2107776,124.100634 C38.0174176,122.929735 34.8507165,121.65241 31.7105792,120.268621 C28.5704419,118.884831 25.297297,118.139725 21.8910464,118.03328 C21.0394837,118.03328 20.0814901,118.059891 19.0170368,118.113114 C17.9525835,118.166336 16.941368,118.326002 15.98336,118.592115 C15.025352,118.858229 14.1738021,119.284003 13.4286848,119.869453 C12.6835675,120.454902 12.2045707,121.279841 11.99168,122.344294 C11.7787893,123.621638 11.9650659,124.659465 12.5505152,125.457805 C13.1359645,126.256145 13.9076816,126.921418 14.8656896,127.453645 C15.8236976,127.985871 16.8881349,128.385035 18.0590336,128.651149 C19.2299323,128.917262 20.2943696,129.103539 21.2523776,129.209984 C24.6586282,129.422875 28.0648278,129.023711 31.4710784,128.01248 C34.877329,127.001249 38.123863,125.697314 41.2107776,124.100634 Z M219.718707,64.544768 L235.685427,64.544768 C231.214723,72.4217226 226.85053,80.298559 222.592717,88.1755136 C218.334904,96.0524682 213.811045,103.716417 209.021005,111.16759 C208.595223,111.806262 207.92995,113.083587 207.025165,114.999603 C206.120379,116.915619 205.428495,118.831606 204.949491,120.747622 C204.470487,122.663638 204.417265,124.260294 204.789824,125.537638 C205.162383,126.814982 206.413097,127.134314 208.542003,126.495642 C211.522473,124.792516 214.156955,122.716863 216.44553,120.268621 C218.734104,117.820378 220.862979,115.185896 222.832218,112.365094 C224.801456,109.544293 226.744054,106.723534 228.66007,103.902733 C230.576086,101.081931 232.651739,98.447449 234.887091,95.9992064 C235.738654,95.1476437 236.430538,94.8283125 236.962765,95.0412032 C237.494991,95.2540939 237.867545,95.4669813 238.080435,95.679872 C238.080435,95.7863173 237.814326,96.2653141 237.282099,97.1168768 C234.408075,100.523127 231.69376,104.195436 229.139072,108.133914 C226.584384,112.072391 223.843458,115.851144 220.916211,119.470285 C217.988965,123.089426 214.769042,126.282738 211.256346,129.050317 C207.74365,131.817895 203.645566,133.733883 198.961971,134.798336 C196.513729,134.904781 194.704185,134.372563 193.533286,133.201664 C192.362388,132.030765 191.56406,130.540553 191.138278,128.730982 C190.712497,126.921412 190.526221,125.005425 190.579443,122.982963 C190.632666,120.960502 190.765721,119.097737 190.978611,117.394611 C189.807713,118.671955 188.290889,120.242 186.428096,122.104794 C184.565303,123.967587 182.516261,125.856963 180.280909,127.772979 C178.045557,129.688995 175.730406,131.418706 173.335386,132.962163 C170.940366,134.505621 168.598603,135.516836 166.310029,135.99584 C164.021454,136.474844 161.892579,136.261957 159.923341,135.357171 C157.954102,134.452386 156.330835,132.509788 155.053491,129.529318 C153.776147,126.548849 153.190707,123.541814 153.297152,120.508122 C153.403597,117.47443 153.935816,114.467394 154.893824,111.486925 C155.851832,108.506455 157.102546,105.632475 158.646003,102.864896 C160.189461,100.097317 161.759506,97.4894458 163.356186,95.0412032 C166.868882,89.7189366 170.940354,84.8757466 175.570726,80.511488 C180.201098,76.1472294 185.283787,72.4216986 190.818944,69.334784 C192.73496,68.2703307 194.943667,67.2325043 197.445133,66.2212736 C199.946598,65.2100429 202.394804,64.5979915 204.789824,64.3851008 C207.184844,64.1722101 209.393551,64.5447632 211.416013,65.5027712 C213.438474,66.4607792 214.981908,68.3767664 216.046362,71.2507904 C216.685034,70.0798917 217.323696,68.9622325 217.962368,67.8977792 C218.60104,66.8333259 219.186481,65.7156667 219.718707,64.544768 Z M198.642637,100.94889 C198.961973,100.310218 199.73369,99.0861146 200.957811,97.276544 C202.181933,95.4669734 203.485868,93.3913205 204.869658,91.0495232 C206.253447,88.7077259 207.557383,86.2062981 208.781504,83.5451648 C210.005625,80.8840315 210.857175,78.4358256 211.336179,76.2004736 C211.815183,73.9651216 211.788572,72.1023563 211.256346,70.6121216 C210.724119,69.1218869 209.287129,68.2703371 206.945331,68.0574464 C205.242206,68.3767824 203.565717,69.0420557 201.915814,70.0532864 C200.265912,71.0645171 198.642645,72.28862 197.045965,73.725632 C195.449285,75.162644 193.959073,76.6528563 192.575283,78.1963136 C191.191494,79.7397709 189.860947,81.2033723 188.583603,82.5871616 C186.028915,85.9934122 183.527487,89.5060555 181.079245,93.1251968 C178.631002,96.7443381 176.342462,100.416647 174.213555,104.142234 L171.818547,108.533082 C170.860539,110.28943 170.008989,112.125584 169.263872,114.0416 C168.518755,115.957616 168.013147,117.846992 167.747034,119.709786 C167.48092,121.572579 167.773641,123.195846 168.625203,124.579635 C169.370321,125.963425 170.354925,126.761753 171.579046,126.974643 C172.803168,127.187534 174.053882,127.08109 175.331226,126.655309 C176.60857,126.229527 177.859283,125.617476 179.083405,124.819136 C180.307526,124.020796 181.292131,123.249079 182.037248,122.503962 C185.337053,119.417047 188.3707,116.064069 191.138278,112.444928 C193.905857,108.825787 196.407285,104.993812 198.642637,100.94889 Z M264.745969,63.5884336 C264.958582,63.9077686 265.19771,64.3862092 265.46336,65.0237696 C265.729473,65.6624416 265.862528,66.301104 265.862528,66.939776 C265.649637,68.4300107 265.14403,69.9734448 264.34569,71.5701248 C263.54735,73.1668048 262.828854,74.7102389 262.190182,76.2004736 C264.319089,74.390903 266.447964,72.6345813 268.57687,70.931456 C270.705777,69.2283307 272.994317,67.7381184 275.44256,66.4607744 C276.507013,65.8221024 277.731116,65.2366619 279.114906,64.7044352 C280.498695,64.1722085 281.935685,63.7996555 283.42592,63.5867648 C284.916155,63.3738741 286.406367,63.2940413 287.896602,63.347264 C289.386836,63.4004867 290.770605,63.6932069 292.047949,64.2254336 C294.921973,65.6092229 296.492018,67.6848758 296.758131,70.4524544 C297.024245,73.220033 296.837968,75.9343483 296.199296,78.5954816 C295.028397,82.3210682 293.165632,85.9135443 290.610944,89.3730176 C288.056256,92.8324909 285.714494,96.1588576 283.585587,99.3522176 C281.669571,102.226242 279.806806,105.100222 277.997235,107.974246 C276.187665,110.84827 274.431343,113.828695 272.728218,116.91561 C272.408882,117.554282 271.929885,118.432442 271.291213,119.550118 C270.652541,120.667794 270.173544,121.785454 269.854208,122.90313 C269.534872,124.020806 269.534872,124.978799 269.854208,125.777139 C270.173544,126.575479 271.131538,126.868199 272.728218,126.655309 C276.134468,125.803746 279.141504,124.393367 281.749414,122.424128 C284.357325,120.454889 286.725698,118.19296 288.854605,115.638272 C290.983511,113.083584 292.979331,110.369269 294.842125,107.495245 C296.704918,104.621221 298.594294,101.906906 300.51031,99.3522176 C300.723201,99.0328816 301.042532,98.4474411 301.468314,97.5958784 C301.894095,96.7443157 302.399703,95.9992096 302.985152,95.3605376 C303.570601,94.7218656 304.156042,94.2960907 304.741491,94.0832 C305.326941,93.8703093 305.938992,94.1896405 306.577664,95.0412032 C306.897,95.5734299 306.976833,96.1588704 306.817165,96.7975424 C306.657497,97.4362144 306.364777,98.1014877 305.938995,98.7933824 C305.513214,99.4852771 305.087439,100.123939 304.661658,100.709389 C304.235876,101.294838 303.863323,101.747224 303.543987,102.06656 C300.989299,105.579256 298.301595,109.171732 295.480794,112.844096 C292.659992,116.51646 289.652957,119.922659 286.459597,123.062797 C283.266237,126.202934 279.753594,128.917249 275.921562,131.205824 C272.08953,133.494399 267.885002,135.011222 263.307853,135.756339 C261.391837,135.862785 259.662126,135.516842 258.118669,134.718502 C256.575211,133.920162 255.377719,132.509783 254.526157,130.487322 C253.568149,128.25197 253.275429,125.910207 253.647987,123.461965 C254.020546,121.013722 254.765652,118.592127 255.883328,116.197107 C257.001004,113.802087 258.278329,111.486936 259.715341,109.251584 C261.152353,107.016232 262.456289,104.993801 263.627187,103.18423 C265.543203,100.097316 267.539023,97.0104474 269.614707,93.9235328 C271.690391,90.8366182 273.632989,87.7497498 275.44256,84.6628352 C276.294123,83.4919365 277.119062,82.2944445 277.917402,81.0703232 C278.715742,79.8462019 279.434237,78.595488 280.072909,77.318144 C280.605135,76.4665813 281.004299,75.402144 281.270413,74.1248 C281.536526,72.847456 281.190584,71.8894624 280.232576,71.2507904 C279.381013,70.7185637 278.449631,70.6653419 277.4384,71.0911232 C276.427169,71.5169045 275.495787,71.8894576 274.644224,72.2087936 C271.025083,73.8054736 267.80516,76.1206248 264.984358,79.1543168 C262.163557,82.1880088 259.529075,85.1418224 257.080832,88.0158464 C256.016379,89.1867451 255.058385,90.3842371 254.206822,91.6083584 C253.35526,92.8324797 252.50371,94.0831936 251.652147,95.3605376 C247.926561,101.108586 244.174419,106.829936 240.39561,112.524762 C236.6168,118.219587 232.864659,123.940938 229.139072,129.688986 C228.926181,130.221212 228.580239,130.913097 228.101235,131.764659 C227.622231,132.616222 227.169845,133.254884 226.744064,133.680666 C226.211837,134.106447 225.360287,134.239502 224.189389,134.079834 C223.01849,133.920166 222.16694,133.893555 221.634714,134 L214.68919,134 C213.145733,134 212.187739,133.760502 211.815181,133.281498 C211.442622,132.802494 211.575677,131.924333 212.214349,130.646989 C212.853021,129.369645 213.917458,127.453658 215.407693,124.89897 C220.197733,117.341351 224.907868,109.837068 229.53824,102.385894 C234.168612,94.9347211 238.772304,87.3772159 243.349453,79.713152 C243.881679,78.755144 244.440509,77.7971504 245.025958,76.8391424 C245.611408,75.8811344 246.170237,74.8699189 246.702464,73.8054656 C247.554027,72.6345669 247.979802,71.4636859 247.979802,70.2927872 C247.979802,69.1218885 248.033023,67.8445637 248.139469,66.4607744 C248.245914,65.2898757 248.272525,64.6246024 248.219302,64.4649344 C248.16608,64.3052664 248.565244,64.2254336 249.416806,64.2254336 C250.161924,64.2254336 251.386027,64.1722117 253.089152,64.0657664 C254.792277,63.9593211 256.521988,63.8794883 258.278336,63.8262656 C260.034684,63.7730429 261.578118,63.7198211 262.908685,63.6665984 C264.046875,63.6210708 264.659299,63.595016 264.745969,63.5884336 L264.745969,63.5884336 Z M332.125528,63.5884336 C332.33814,63.9077686 332.577268,64.3862092 332.842918,65.0237696 C333.109032,65.6624416 333.242086,66.301104 333.242086,66.939776 C333.029196,68.4300107 332.523588,69.9734448 331.725248,71.5701248 C330.926908,73.1668048 330.208413,74.7102389 329.569741,76.2004736 C331.698647,74.390903 333.827522,72.6345813 335.956429,70.931456 C338.085335,69.2283307 340.373876,67.7381184 342.822118,66.4607744 C343.886572,65.8221024 345.110675,65.2366619 346.494464,64.7044352 C347.878253,64.1722085 349.315244,63.7996555 350.805478,63.5867648 C352.295713,63.3738741 353.785925,63.2940413 355.27616,63.347264 C356.766395,63.4004867 358.150163,63.6932069 359.427507,64.2254336 C362.301531,65.6092229 363.871576,67.6848758 364.13769,70.4524544 C364.403803,73.220033 364.217526,75.9343483 363.578854,78.5954816 C362.407956,82.3210682 360.54519,85.9135443 357.990502,89.3730176 C355.435814,92.8324909 353.094052,96.1588576 350.965146,99.3522176 C349.04913,102.226242 347.186364,105.100222 345.376794,107.974246 C343.567223,110.84827 341.810901,113.828695 340.107776,116.91561 C339.78844,117.554282 339.309443,118.432442 338.670771,119.550118 C338.032099,120.667794 337.553102,121.785454 337.233766,122.90313 C336.91443,124.020806 336.91443,124.978799 337.233766,125.777139 C337.553102,126.575479 338.511096,126.868199 340.107776,126.655309 C343.514027,125.803746 346.521062,124.393367 349.128973,122.424128 C351.736883,120.454889 354.105257,118.19296 356.234163,115.638272 C358.36307,113.083584 360.35889,110.369269 362.221683,107.495245 C364.084477,104.621221 365.973853,101.906906 367.889869,99.3522176 C368.102759,99.0328816 368.422091,98.4474411 368.847872,97.5958784 C369.273653,96.7443157 369.779261,95.9992096 370.36471,95.3605376 C370.95016,94.7218656 371.5356,94.2960907 372.12105,94.0832 C372.706499,93.8703093 373.31855,94.1896405 373.957222,95.0412032 C374.276558,95.5734299 374.356391,96.1588704 374.196723,96.7975424 C374.037055,97.4362144 373.744335,98.1014877 373.318554,98.7933824 C372.892772,99.4852771 372.466997,100.123939 372.041216,100.709389 C371.615435,101.294838 371.242882,101.747224 370.923546,102.06656 C368.368858,105.579256 365.681153,109.171732 362.860352,112.844096 C360.039551,116.51646 357.032515,119.922659 353.839155,123.062797 C350.645795,126.202934 347.133152,128.917249 343.30112,131.205824 C339.469088,133.494399 335.26456,135.011222 330.687411,135.756339 C328.771395,135.862785 327.041685,135.516842 325.498227,134.718502 C323.95477,133.920162 322.757278,132.509783 321.905715,130.487322 C320.947707,128.25197 320.654987,125.910207 321.027546,123.461965 C321.400104,121.013722 322.14521,118.592127 323.262886,116.197107 C324.380562,113.802087 325.657887,111.486936 327.094899,109.251584 C328.531911,107.016232 329.835847,104.993801 331.006746,103.18423 C332.922762,100.097316 334.918582,97.0104474 336.994266,93.9235328 C339.06995,90.8366182 341.012548,87.7497498 342.822118,84.6628352 C343.673681,83.4919365 344.49862,82.2944445 345.29696,81.0703232 C346.0953,79.8462019 346.813795,78.595488 347.452467,77.318144 C347.984694,76.4665813 348.383858,75.402144 348.649971,74.1248 C348.916085,72.847456 348.570142,71.8894624 347.612134,71.2507904 C346.760572,70.7185637 345.829189,70.6653419 344.817958,71.0911232 C343.806728,71.5169045 342.875345,71.8894576 342.023782,72.2087936 C338.404641,73.8054736 335.184718,76.1206248 332.363917,79.1543168 C329.543115,82.1880088 326.908633,85.1418224 324.46039,88.0158464 C323.395937,89.1867451 322.437943,90.3842371 321.586381,91.6083584 C320.734818,92.8324797 319.883268,94.0831936 319.031706,95.3605376 C315.306119,101.108586 311.553977,106.829936 307.775168,112.524762 C303.996359,118.219587 300.244217,123.940938 296.51863,129.688986 C296.30574,130.221212 295.959798,130.913097 295.480794,131.764659 C295.00179,132.616222 294.549404,133.254884 294.123622,133.680666 C293.591396,134.106447 292.739846,134.239502 291.568947,134.079834 C290.398049,133.920166 289.546499,133.893555 289.014272,134 L282.068749,134 C280.525291,134 279.567298,133.760502 279.194739,133.281498 C278.822181,132.802494 278.955235,131.924333 279.593907,130.646989 C280.232579,129.369645 281.297017,127.453658 282.787251,124.89897 C287.577291,117.341351 292.287426,109.837068 296.917798,102.385894 C301.54817,94.9347211 306.151862,87.3772159 310.729011,79.713152 C311.261238,78.755144 311.820067,77.7971504 312.405517,76.8391424 C312.990966,75.8811344 313.549796,74.8699189 314.082022,73.8054656 C314.933585,72.6345669 315.35936,71.4636859 315.35936,70.2927872 C315.35936,69.1218885 315.412582,67.8445637 315.519027,66.4607744 C315.625473,65.2898757 315.652083,64.6246024 315.598861,64.4649344 C315.545638,64.3052664 315.944802,64.2254336 316.796365,64.2254336 C317.541482,64.2254336 318.765585,64.1722117 320.46871,64.0657664 C322.171836,63.9593211 323.901546,63.8794883 325.657894,63.8262656 C327.414242,63.7730429 328.957677,63.7198211 330.288243,63.6665984 C331.426434,63.6210708 332.038858,63.595016 332.125528,63.5884336 L332.125528,63.5884336 Z M383.856589,123.940966 C382.259909,125.431201 380.530198,126.948024 378.667405,128.491482 C376.804611,130.034939 374.862013,131.392097 372.839552,132.562995 C370.817091,133.733894 368.688216,134.638666 366.452864,135.277338 C364.217512,135.91601 361.928972,135.969231 359.587174,135.437005 C357.351822,134.904778 355.701945,133.920174 354.637491,132.483162 C353.573038,131.04615 352.881154,129.396272 352.561818,127.533478 C352.242482,125.670685 352.242482,123.728087 352.561818,121.705626 C352.881154,119.683164 353.36015,117.820399 353.998822,116.117274 C355.595502,112.285242 357.431657,108.612933 359.507341,105.100237 C361.583025,101.587541 363.711899,98.1015085 365.894029,94.6420352 L372.440384,84.2636672 C374.622513,80.8041939 376.618333,77.2649397 378.427904,73.6457984 C378.74724,73.0071264 379.03996,72.2886312 379.306074,71.4902912 C379.572187,70.6919512 379.838296,69.8670123 380.10441,69.0154496 C380.370523,68.1638869 380.716465,67.3655589 381.142246,66.6204416 C381.568028,65.8753243 382.153468,65.3431056 382.898586,65.0237696 C384.921047,65.0237696 387.023311,64.864104 389.20544,64.544768 C391.387569,64.225432 393.489833,64.1722101 395.512294,64.3851008 C396.576748,64.5979915 397.188799,65.1035992 397.348467,65.9019392 C397.508135,66.7002792 397.428302,67.57844 397.108966,68.536448 C396.78963,69.494456 396.363855,70.4524496 395.831629,71.4104576 C395.299402,72.3684656 394.873627,73.1667936 394.554291,73.8054656 C392.106049,79.0212869 389.391733,84.0507534 386.411264,88.894016 C383.430795,93.7372786 380.45037,98.5538576 377.469901,103.343898 C377.150565,103.876124 376.565124,104.913951 375.713562,106.457408 C374.861999,108.000865 373.983838,109.730576 373.079053,111.646592 C372.174267,113.562608 371.296107,115.531817 370.444544,117.554278 C369.592981,119.57674 368.98093,121.386283 368.608371,122.982963 C368.235813,124.579643 368.209202,125.777135 368.528538,126.575475 C368.847874,127.373815 369.699423,127.50687 371.083213,126.974643 C376.511925,124.952182 381.22206,121.865314 385.21376,117.713946 C389.20546,113.562578 392.851158,108.932275 396.150963,103.822899 C399.450768,98.7135233 402.484415,93.3647255 405.251994,87.7763456 C408.019572,82.1879657 410.893553,76.9988336 413.874022,72.2087936 C414.299804,71.3572309 414.592524,70.2927936 414.752192,69.0154496 C414.91186,67.7381056 414.991693,66.6736683 414.991693,65.8221056 C415.523919,65.0769883 416.162582,64.6512133 416.907699,64.544768 C419.355942,64.3318773 421.85737,64.1189899 424.412058,63.9060992 C426.966746,63.6932085 429.574617,63.7464304 432.23575,64.0657664 C432.448641,65.0237744 432.475252,66.2212664 432.315584,67.6582784 C432.155916,69.0952904 431.809974,70.3992261 431.277747,71.5701248 C430.106849,74.3377034 428.643247,76.9987968 426.886899,79.5534848 C425.130551,82.1081728 423.560506,84.6096006 422.176717,87.0578432 C419.409138,92.1672191 416.61499,97.1434638 413.794189,101.986726 C410.973387,106.829989 408.019574,111.646568 404.932659,116.436608 C402.165081,120.694421 399.530598,125.165058 397.029133,129.848653 C394.527667,134.532247 391.919796,139.135939 389.20544,143.659866 C386.491084,148.183792 383.484048,152.494764 380.184243,156.592909 C376.884438,160.691054 373.052463,164.28353 368.688205,167.370445 C364.643282,170.350914 360.332311,172.905564 355.755162,175.03447 C351.178012,177.163377 346.441266,178.547146 341.544781,179.185818 C339.522319,179.505154 337.153946,179.771263 334.43959,179.984154 C331.725234,180.197044 329.064141,180.06399 326.45623,179.584986 C323.84832,179.105982 321.479947,178.227821 319.35104,176.950477 C317.222133,175.673133 315.678699,173.757146 314.720691,171.202458 C314.188465,169.073551 314.268297,166.944676 314.960192,164.81577 C315.652087,162.686863 316.956022,161.036985 318.872038,159.866086 C320.681609,158.801633 322.677429,158.615357 324.859558,159.307251 C327.041688,159.999146 328.398845,161.515969 328.931072,163.857766 C329.143963,164.92222 329.010908,165.960046 328.531904,166.971277 C328.0529,167.982507 327.600514,168.967112 327.174733,169.92512 C326.748951,170.883128 326.562675,171.814511 326.615898,172.719296 C326.66912,173.624081 327.334394,174.502242 328.611738,175.353805 C329.569746,176.098922 330.687405,176.577919 331.964749,176.79081 C333.242093,177.0037 334.546029,177.056922 335.876595,176.950477 C337.207162,176.844031 338.511098,176.604533 339.788442,176.231974 C341.065786,175.859416 342.183445,175.460252 343.141453,175.03447 C348.144383,172.373337 352.641631,169.126803 356.633331,165.294771 C360.625031,161.462739 364.244118,157.258212 367.490701,152.681062 C370.737283,148.103913 373.691097,143.367167 376.35223,138.470682 C379.013364,133.574196 381.514791,128.731006 383.856589,123.940966 Z" id="Danny" fill="#1B1B1B"></path>
                    </g>
                    <path d="M130.81,167.14 L136.66,167.14 L136.66,167.65 C135.97,167.65 134.68,167.68 132.76,172.3 L129.19,181.27 L128.71,181.27 C123.4,169.75 123.13,169.24 123.13,169.24 C122.41,167.65 121.63,167.65 121.09,167.65 L121.09,167.14 L128.17,167.14 L128.17,167.65 C126.49,167.65 127.6,169.9 127.6,169.9 L130.57,176.26 L132.22,172.18 C132.22,172.18 134.08,167.65 130.81,167.65 L130.81,167.14 Z M146.348235,177.91 L146.348235,173.86 C143.408235,174.52 142.418235,175.93 142.418235,177.46 C142.418235,177.46 142.418235,179.44 144.368235,179.44 C145.388235,179.44 146.078235,178.63 146.348235,177.91 Z M151.568235,179.44 C151.568235,179.44 152.198235,179.44 152.378235,178.93 L152.888235,179.14 C152.648235,180.1 151.268235,181.27 149.378235,181.27 C149.378235,181.27 146.708235,181.27 146.378235,178.84 C145.928235,180.16 144.158235,181.27 142.028235,181.27 C142.028235,181.27 138.578235,181.27 138.578235,178.21 C138.578235,174.94 141.098235,174.64 146.348235,173.32 L146.348235,171.46 C146.348235,168.34 144.608235,166.78 142.538235,167.86 C141.578235,168.34 141.458235,168.85 141.668235,168.88 C142.118235,168.94 142.508235,169.15 142.778235,169.54 C143.318235,170.32 143.108235,171.37 142.328235,171.91 C141.548235,172.42 140.498235,172.24 139.958235,171.46 C139.598235,170.89 139.568235,170.17 139.868235,169.66 C140.168235,169.15 140.558235,168.34 142.208235,167.47 C143.558235,166.75 145.118235,166.87 145.118235,166.87 C149.048235,166.87 150.128235,169.33 150.128235,172.87 L150.128235,177.34 C150.128235,177.34 150.098235,179.44 151.568235,179.44 Z M169.02647,177.34 C169.02647,178.99 169.17647,180.22 170.25647,180.49 L170.25647,181 L164.07647,181 L164.07647,180.49 C165.21647,180.16 165.27647,178.87 165.27647,177.34 L165.27647,171.52 C165.27647,170.08 164.34647,169.03 162.84647,169.03 C161.67647,169.03 160.29647,170.29 160.29647,171.49 L160.29647,177.4 C160.29647,179.05 160.47647,180.19 161.52647,180.49 L161.52647,181 L155.37647,181 L155.37647,180.49 C156.51647,180.16 156.54647,178.93 156.54647,177.4 L156.54647,170.62 C156.54647,169.57 156.27647,169.24 155.04647,168.58 L155.04647,168.07 L160.29647,166.87 L160.29647,170.08 C160.98647,168.25 163.35647,166.87 165.24647,166.87 C167.58647,166.87 169.02647,167.8 169.02647,171.43 L169.02647,177.34 Z M194.01294,176.62 L194.01294,172.39 C194.01294,168.61 192.15294,167.38 190.44294,167.38 C188.25294,167.38 187.29294,169.03 187.29294,173.59 C187.29294,178.42 188.28294,180.22 190.71294,180.22 C192.75294,180.22 194.01294,178.72 194.01294,176.62 Z M197.73294,178.09 C197.73294,179.56 198.03294,179.92 199.26294,180.07 L199.26294,180.58 L194.85294,181.24 C194.01294,181.36 194.01294,180.7 194.01294,180.7 L194.01294,178.84 C193.05294,180.61 190.83294,181.27 189.42294,181.27 C186.03294,181.27 183.03294,178.6 183.03294,173.86 C183.03294,169.03 186.21294,166.87 190.41294,166.87 C191.79294,166.87 193.05294,167.2 194.01294,167.77 L194.01294,162.04 C194.01294,160.99 193.71294,160.69 192.48294,160.24 L192.48294,159.73 L197.73294,158.62 L197.73294,178.09 Z M206.251175,173.29 L212.131175,173.29 C212.131175,169.51 210.901175,167.38 209.251175,167.38 C207.481175,167.38 206.251175,170.41 206.251175,173.29 Z M209.401175,166.87 C213.751175,166.87 215.791175,169.12 215.791175,173.8 L206.251175,173.8 C206.491175,176.74 207.991175,178.27 210.001175,178.72 C211.621175,179.08 214.021175,178.48 214.771175,177.07 L215.281175,177.34 C214.801175,178.9 213.031175,181.27 209.011175,181.27 C205.081175,181.27 202.381175,177.64 202.381175,174.13 C202.381175,169.9 205.261175,166.87 209.401175,166.87 Z M227.84941,167.02 C228.47941,166.75 229.61941,166.87 230.27941,167.41 C231.20941,168.22 231.29941,169.66 230.48941,170.56 C229.67941,171.49 228.29941,171.61 227.33941,170.8 C226.88941,170.38 226.64941,169.87 226.64941,169.33 C226.64941,169 225.41941,169.3 224.30941,171.1 L224.30941,177.34 C224.30941,179.02 224.45941,180.19 225.53941,180.49 L225.53941,181 L219.32941,181 L219.32941,180.49 C220.49941,180.13 220.52941,178.9 220.52941,177.34 L220.52941,170.68 C220.52941,169.66 220.25941,169.21 219.02941,168.58 L219.02941,168.07 L224.30941,166.87 L224.30941,170.26 C225.89941,167.77 227.12941,167.32 227.84941,167.02 Z M244.85588,180.19 L244.85588,170.8 C244.85588,169.78 244.58588,169.24 243.35588,168.58 L243.35588,168.07 L248.57588,166.87 L248.57588,179.5 C248.57588,185.17 245.99588,187.09 243.02588,187.84 L243.02588,187.33 C244.85588,186.88 244.85588,180.19 244.85588,180.19 Z M248.51588,162.43 C248.51588,163.57 247.58588,164.47 246.44588,164.47 C245.33588,164.47 244.40588,163.57 244.40588,162.43 C244.40588,161.29 245.33588,160.39 246.44588,160.39 C247.58588,160.39 248.51588,161.29 248.51588,162.43 Z M261.504115,177.91 L261.504115,173.86 C258.564115,174.52 257.574115,175.93 257.574115,177.46 C257.574115,177.46 257.574115,179.44 259.524115,179.44 C260.544115,179.44 261.234115,178.63 261.504115,177.91 Z M266.724115,179.44 C266.724115,179.44 267.354115,179.44 267.534115,178.93 L268.044115,179.14 C267.804115,180.1 266.424115,181.27 264.534115,181.27 C264.534115,181.27 261.864115,181.27 261.534115,178.84 C261.084115,180.16 259.314115,181.27 257.184115,181.27 C257.184115,181.27 253.734115,181.27 253.734115,178.21 C253.734115,174.94 256.254115,174.64 261.504115,173.32 L261.504115,171.46 C261.504115,168.34 259.764115,166.78 257.694115,167.86 C256.734115,168.34 256.614115,168.85 256.824115,168.88 C257.274115,168.94 257.664115,169.15 257.934115,169.54 C258.474115,170.32 258.264115,171.37 257.484115,171.91 C256.704115,172.42 255.654115,172.24 255.114115,171.46 C254.754115,170.89 254.724115,170.17 255.024115,169.66 C255.324115,169.15 255.714115,168.34 257.364115,167.47 C258.714115,166.75 260.274115,166.87 260.274115,166.87 C264.204115,166.87 265.284115,169.33 265.284115,172.87 L265.284115,177.34 C265.284115,177.34 265.254115,179.44 266.724115,179.44 Z M286.55235,166.96 C287.18235,167.65 287.12235,168.73 286.40235,169.36 C285.71235,169.99 284.63235,169.9 284.00235,169.21 C283.70235,168.85 283.58235,168.43 283.64235,168.01 C283.67235,167.77 282.95235,167.92 282.44235,168.55 C283.16235,169.3 283.52235,170.29 283.52235,171.37 C283.52235,173.8 281.42235,175.87 277.73235,175.87 C276.56235,175.87 275.69235,175.72 274.97235,175.42 C274.16235,175.78 272.33235,178.24 275.51235,178.24 L279.71235,178.24 C281.78235,178.24 285.26235,178.48 284.69235,183.01 C284.69235,183.01 284.54235,185.53 281.39235,187.3 C277.19235,189.64 271.73235,189.37 270.56235,186.91 C269.51235,184.72 271.34235,182.32 273.11235,181.54 C272.30235,181.15 271.55235,180.37 271.55235,179.02 C271.55235,179.02 271.52235,176.29 274.43235,175.18 C272.93235,174.52 271.97235,172.96 271.97235,171.37 C271.97235,168.94 274.07235,166.87 277.73235,166.87 C279.71235,166.87 281.09235,167.38 282.05235,168.19 C282.92235,166.93 284.18235,166.54 284.87235,166.42 C285.44235,166.3 286.13235,166.48 286.55235,166.96 Z M276.32235,182.26 C275.99235,182.26 274.82235,182.32 273.65235,181.84 C270.89235,183.4 273.02235,185.8 273.02235,185.8 C274.67235,187.78 278.30235,188.5 281.12235,186.85 C283.10235,185.65 282.86235,183.85 282.86235,183.85 C282.86235,183.85 282.59235,182.26 280.40235,182.26 L276.32235,182.26 Z M277.73235,175.36 C279.11235,175.36 280.01235,174.73 280.01235,171.37 C280.01235,168.01 279.02235,167.38 277.73235,167.38 C276.23235,167.38 275.48235,168.01 275.48235,171.37 C275.48235,174.73 276.41235,175.36 277.73235,175.36 Z M296.720585,179.14 C297.590585,179.14 298.250585,178.54 298.520585,178.09 L298.970585,178.36 C298.370585,179.77 296.540585,181.27 294.530585,181.27 C292.160585,181.27 290.750585,180.31 290.750585,176.68 L290.750585,167.65 L289.250585,167.65 L289.160585,167.14 L290.750585,167.14 L290.750585,163.12 L294.500585,162.49 L294.500585,167.14 L298.070585,167.14 L297.950585,167.65 L294.500585,167.65 L294.500585,176.59 C294.500585,178.27 295.220585,179.14 296.720585,179.14 Z" id="vanderjagt" fill="#000000" fill-rule="nonzero"></path>
                </g>
            </g>
        </g>
    </g>
</svg>